<?xml version="1.0" encoding="utf-8"?>
<!-- Generator: Adobe Illustrator 17.0.0, SVG Export Plug-In . SVG Version: 6.00 Build 0)  -->
<!DOCTYPE svg PUBLIC "-//W3C//DTD SVG 1.1//EN" "http://www.w3.org/Graphics/SVG/1.1/DTD/svg11.dtd">
<svg version="1.1" id="Layer_1" xmlns="http://www.w3.org/2000/svg" xmlns:xlink="http://www.w3.org/1999/xlink" x="0px" y="0px"
	 width="72.786px" height="10.436px" viewBox="0.107 31.282 72.786 10.436" enable-background="new 0.107 31.282 72.786 10.436"
	 xml:space="preserve">
<g>
	<g>
		<rect x="1.13" y="32.27" fill="#FFFFFF" width="0.303" height="7.345"/>
	</g>
	<g>
		<path fill="#FFFFFF" d="M1.281,36.441v-0.303h2.647c0.068-0.003,1.817-0.101,1.817-1.751c0-0.625-0.176-1.113-0.524-1.449
			c-0.555-0.537-1.363-0.517-1.371-0.517H0.107v-0.303h3.739c0.033-0.001,0.941-0.023,1.586,0.602
			c0.409,0.396,0.616,0.957,0.616,1.667c0,1.942-2.093,2.053-2.114,2.054L1.281,36.441z"/>
	</g>
	<g>
		<rect x="0.107" y="39.464" fill="#FFFFFF" width="2.349" height="0.303"/>
	</g>
	<g>
		<path fill="#FFFFFF" stroke="#FFFFFF" stroke-width="1.1525" stroke-miterlimit="10" d="M10.307,41.057"/>
	</g>
	<g>
		<path fill="#FFFFFF" d="M9.13,41.718c-0.302,0-0.635-0.041-1.004-0.137c-0.906-0.235-1.733-1.262-2.043-1.772
			c-0.705-1.157-1.986-3.46-1.999-3.484l0.264-0.147C4.36,36.202,5.639,38.5,6.34,39.652c0.335,0.551,1.107,1.441,1.861,1.636
			c2.312,0.6,3.091-1.137,3.099-1.154l0.278,0.12C11.571,40.271,10.922,41.718,9.13,41.718z"/>
	</g>
	<g>
		<rect x="29.319" y="32.299" fill="#FFFFFF" width="0.303" height="3.739"/>
	</g>
	<g>
		<path fill="#FFFFFF" d="M26.268,41.038c-1.281,0-2.287-0.605-2.772-1.706c-0.521-1.182-0.251-2.566,0.629-3.218
			c0.693-0.514,1.277-0.457,1.645-0.319c0.185,0.07,0.351,0.172,0.491,0.292c0.418-0.208,0.887-0.206,2.097-0.202
			c0.196,0.001,0.413,0.002,0.653,0.002h6.233v0.303h-5.622v0.514c0,1.406-0.321,3.827-2.471,4.246
			C26.844,41.009,26.549,41.038,26.268,41.038z M25.249,36.003c-0.308,0-0.628,0.119-0.945,0.354
			c-0.769,0.57-0.998,1.797-0.532,2.853c0.531,1.205,1.772,1.744,3.319,1.442c1.938-0.378,2.227-2.636,2.227-3.949v-0.514h-0.308
			c-0.24,0-0.457-0.001-0.654-0.002c-1.069-0.004-1.52-0.006-1.869,0.132c0.148,0.183,0.246,0.381,0.285,0.555
			c0.064,0.293-0.026,0.555-0.248,0.719c-0.211,0.156-0.494,0.182-0.703,0.064c-0.205-0.116-0.334-0.313-0.353-0.54
			c-0.022-0.267,0.108-0.536,0.357-0.738c0.055-0.045,0.108-0.086,0.16-0.123c-0.098-0.073-0.206-0.134-0.322-0.178
			C25.529,36.028,25.391,36.003,25.249,36.003z M26.214,36.467c-0.063,0.043-0.128,0.092-0.197,0.148
			c-0.17,0.138-0.26,0.312-0.246,0.478c0.011,0.128,0.082,0.235,0.2,0.302c0.103,0.058,0.261,0.04,0.374-0.044
			c0.071-0.053,0.183-0.176,0.132-0.411C26.445,36.794,26.351,36.622,26.214,36.467z"/>
	</g>
	<g>
		<rect x="33.918" y="32.299" fill="#FFFFFF" width="0.303" height="7.345"/>
	</g>
	<g>
		<rect x="32.894" y="32.148" fill="#FFFFFF" width="2.349" height="0.303"/>
	</g>
	<g>
		<rect x="28.257" y="32.148" fill="#FFFFFF" width="2.349" height="0.303"/>
	</g>
	<g>
		<rect x="32.894" y="39.493" fill="#FFFFFF" width="2.349" height="0.303"/>
	</g>
	<g>
		<polygon fill="#FFFFFF" points="20.199,39.645 19.897,39.645 19.897,31.585 18.873,31.585 18.873,31.282 20.199,31.282 		"/>
	</g>
	<g>
		<rect x="18.873" y="39.493" fill="#FFFFFF" width="2.349" height="0.303"/>
	</g>
	<g>
		<polygon fill="#FFFFFF" points="42.835,39.645 42.533,39.645 42.533,34.109 41.509,34.109 41.509,33.806 42.835,33.806 		"/>
	</g>
	<g>
		<rect x="41.509" y="39.493" fill="#FFFFFF" width="2.349" height="0.303"/>
	</g>
	<g>
		<polygon fill="#FFFFFF" points="54.083,39.645 53.78,39.645 53.78,34.109 52.757,34.109 52.757,33.806 54.083,33.806 		"/>
	</g>
	<g>
		<rect x="52.757" y="39.493" fill="#FFFFFF" width="2.349" height="0.303"/>
	</g>
	<g>
		<polygon fill="#FFFFFF" points="57.575,39.645 57.273,39.645 57.273,34.109 56.25,34.109 56.25,33.806 57.575,33.806 		"/>
	</g>
	<g>
		<rect x="56.25" y="39.493" fill="#FFFFFF" width="2.349" height="0.303"/>
	</g>
	<g>
		<path fill="#FFFFFF" d="M14.443,39.853c-0.395,0-0.823-0.096-1.159-0.363c-0.349-0.277-0.534-0.7-0.534-1.222
			c0-1.091,1.023-1.716,2.808-1.716h1.412v0.303h-1.412c-2.18,0-2.505,0.885-2.505,1.413c0,0.433,0.141,0.764,0.419,0.985
			c0.417,0.331,1.04,0.338,1.446,0.244c1.419-0.33,1.906-1.525,1.911-1.537l0.281,0.111c-0.022,0.055-0.552,1.356-2.124,1.721
			C14.825,39.83,14.638,39.853,14.443,39.853z"/>
	</g>
	<g>
		<path fill="#FFFFFF" d="M17.602,39.865c-0.539,0-0.782-0.492-0.782-0.841v-3.597c0-0.589-0.218-1.023-0.649-1.289
			c-0.61-0.377-1.48-0.31-1.99-0.055c-0.75,0.375-0.961,1.171-0.963,1.18l-0.294-0.074c0.009-0.038,0.244-0.937,1.122-1.376
			c0.597-0.299,1.573-0.371,2.284,0.069c0.362,0.223,0.793,0.673,0.793,1.547v3.597c0,0.208,0.13,0.538,0.479,0.538
			c0.384,0,0.493-0.118,0.571-0.351l0.287,0.096C18.33,39.698,18.073,39.865,17.602,39.865z"/>
	</g>
	<g>
		<path fill="#FFFFFF" d="M49.063,39.915c-1.537,0-2.74-1.337-2.74-3.043c0-1.512,1.048-3.144,2.74-3.144s2.74,1.632,2.74,3.144
			C51.803,38.578,50.6,39.915,49.063,39.915z M49.063,34.031c-1.506,0-2.438,1.475-2.438,2.841c0,1.537,1.071,2.74,2.438,2.74
			s2.438-1.204,2.438-2.74C51.501,35.506,50.569,34.031,49.063,34.031z"/>
	</g>
	<g>
		<path fill="#FFFFFF" d="M62.466,39.796H61.14v-4.424c0-0.668-0.456-1.341-1.474-1.341c-0.881,0-1.668,0.526-2.106,1.409
			l-0.271-0.134c0.489-0.987,1.378-1.577,2.377-1.577c1.046,0,1.777,0.676,1.777,1.644v4.122h1.023V39.796z"/>
	</g>
	<g>
		<path fill="#FFFFFF" d="M9.502,39.915c-1.537,0-2.74-1.337-2.74-3.043c0-0.815,0.248-1.585,0.697-2.167
			c0.487-0.63,1.177-0.977,1.942-0.977c1.389,0,2.344,1.165,2.433,2.969l0.008,0.159l-4.778,0c0,0.006,0,0.011,0,0.017
			c0,1.537,1.071,2.74,2.438,2.74c0.693,0,1.324-0.297,1.776-0.837l0.232,0.194C11,39.579,10.287,39.915,9.502,39.915z
			 M7.077,36.553l4.445,0c-0.145-1.856-1.181-2.522-2.121-2.522C8.336,34.031,7.207,34.912,7.077,36.553z"/>
	</g>
	<g>
		<path fill="#FFFFFF" d="M38.569,39.915c-1.537,0-2.74-1.337-2.74-3.043c0-0.815,0.248-1.585,0.698-2.167
			c0.487-0.63,1.177-0.977,1.942-0.977c1.389,0,2.344,1.165,2.433,2.969l0.008,0.159l-4.778,0c0,0.006,0,0.011,0,0.017
			c0,1.537,1.071,2.74,2.438,2.74c0.693,0,1.324-0.297,1.776-0.837l0.232,0.194C40.066,39.579,39.353,39.915,38.569,39.915z
			 M36.144,36.553l4.445,0c-0.145-1.856-1.181-2.522-2.121-2.522C37.403,34.031,36.274,34.912,36.144,36.553z"/>
	</g>
	<g>
		<path fill="#FFFFFF" d="M65.461,39.915c-1.537,0-2.74-1.337-2.74-3.043c0-0.815,0.248-1.585,0.697-2.167
			c0.487-0.63,1.177-0.977,1.942-0.977c1.389,0,2.344,1.165,2.433,2.969l0.008,0.159l-4.778,0c0,0.006,0,0.011,0,0.017
			c0,1.537,1.071,2.74,2.438,2.74c0.693,0,1.324-0.297,1.776-0.837l0.232,0.194C66.958,39.579,66.245,39.915,65.461,39.915z
			 M63.035,36.553l4.445,0c-0.145-1.856-1.181-2.522-2.121-2.522C64.294,34.031,63.165,34.912,63.035,36.553z"/>
	</g>
	<g>
		<path fill="#FFFFFF" d="M42.842,35.543l-0.279-0.116c0.442-1.064,1.324-1.699,2.357-1.699c0.567,0,1.058,0.183,1.457,0.543
			l-0.203,0.225c-0.342-0.309-0.764-0.465-1.254-0.465C43.999,34.031,43.242,34.582,42.842,35.543z"/>
	</g>
	<g>
		<path fill="#FFFFFF" d="M70.662,39.802c-0.312,0-0.97-0.057-1.453-0.494c-0.368-0.333-0.555-0.813-0.555-1.428h0.303
			c0,0.525,0.153,0.93,0.455,1.203c0.541,0.49,1.388,0.411,1.396,0.41l0.015-0.001c0.982,0,1.669-0.384,1.75-0.977
			c0.078-0.571-0.032-1.154-1.356-1.55c-1.439-0.43-2.075-0.659-2.075-1.582c0-1.022,0.714-1.656,1.863-1.656
			c0.567,0,1.058,0.183,1.457,0.543l-0.203,0.225c-0.342-0.309-0.764-0.465-1.254-0.465c-0.992,0-1.561,0.493-1.561,1.354
			c0,0.665,0.376,0.849,1.859,1.292c1.213,0.362,1.697,0.942,1.569,1.88c-0.103,0.751-0.904,1.237-2.043,1.239
			C70.809,39.798,70.749,39.802,70.662,39.802z"/>
	</g>
</g>
<g>
	<circle fill="#FFFFFF" cx="53.739" cy="32.481" r="0.294"/>
</g>
</svg>
