<?xml version="1.0" encoding="utf-8"?>
<!-- Generator: Adobe Illustrator 17.0.0, SVG Export Plug-In . SVG Version: 6.00 Build 0)  -->
<!DOCTYPE svg PUBLIC "-//W3C//DTD SVG 1.1 Basic//EN" "http://www.w3.org/Graphics/SVG/1.1/DTD/svg11-basic.dtd">
<svg version="1.1" baseProfile="basic" id="Layer_2"
	 xmlns="http://www.w3.org/2000/svg" xmlns:xlink="http://www.w3.org/1999/xlink" x="0px" y="0px" width="461.32px"
	 height="190.568px" viewBox="0 0 461.32 190.568" xml:space="preserve">
<style type="text/css">
	.st0{fill:#F2C31F;}
</style>
<g>
	<g>
		<path class="st0" d="M312.701,186.899c-16.26,0-22.927-17.855-27.338-29.671c-0.472-1.263-0.921-2.467-1.357-3.583
			c-2.906-7.439-6.402-12.394-14.019-12.394c-1.133,0-2.052-0.919-2.052-2.052s0.919-2.052,2.052-2.052
			c10.558,0,14.944,7.585,17.842,15.005c0.443,1.134,0.9,2.357,1.379,3.641c4.255,11.396,10.082,27.002,23.494,27.002
			c3.313,0,7.883-0.63,10.838-3.63c2.094-2.125,3.125-5.229,3.064-9.225c-0.017-1.133,0.888-2.066,2.021-2.083
			c1.149,0.025,2.066,0.888,2.083,2.021c0.077,5.136-1.351,9.23-4.245,12.167C323.335,185.221,318.576,186.899,312.701,186.899z"/>
	</g>
	<g>
		<path class="st0" d="M258.524,155.95c-1.052,0-1.905-0.853-1.905-1.905v-33.616c0-0.508,0.203-0.995,0.564-1.353
			c0.357-0.354,0.839-0.552,1.341-0.552c0.006,0,0.012,0,0.017,0.001l16.917,0.153c6.537-0.001,11.869,5.332,11.869,11.886
			c0,6.197-4.888,10.526-11.887,10.526h-15.012v12.956C260.429,155.096,259.576,155.95,258.524,155.95z M260.429,137.278h15.012
			c3.725,0,8.076-1.758,8.076-6.716c0-4.454-3.623-8.076-8.076-8.076l-15.012-0.136V137.278z"/>
	</g>
	<g>
		<path class="st0" d="M187.181,139.482h-41.938c-25.648,0-33.736-20.405-41.558-40.139c-7.19-18.141-13.982-35.275-34.088-35.275
			c-1.133,0-2.052-0.919-2.052-2.052c0-1.133,0.919-2.052,2.052-2.052c22.894,0,30.524,19.25,37.903,37.867
			c7.654,19.309,14.883,37.547,37.743,37.547h41.938c1.133,0,2.052,0.919,2.052,2.052S188.314,139.482,187.181,139.482z"/>
	</g>
	<g>
		<path class="st0" d="M47.727,92.393c-1.133,0-2.052-0.919-2.052-2.052v-64.14c0-1.133,0.919-2.052,2.052-2.052
			c1.133,0,2.052,0.919,2.052,2.052v64.14C49.779,91.474,48.86,92.393,47.727,92.393z"/>
	</g>
	<g>
		<path class="st0" d="M145.243,166.61c-1.133,0-2.052-0.919-2.052-2.052V100.71c0-1.133,0.919-2.052,2.052-2.052
			c1.133,0,2.052,0.919,2.052,2.052v63.847C147.295,165.691,146.377,166.61,145.243,166.61z"/>
	</g>
	<g>
		<path class="st0" d="M80.006,64.038H47.727c-1.133,0-2.052-0.919-2.052-2.052c0-1.133,0.919-2.052,2.052-2.052h32.279
			c8.458,0,16.992-4.452,16.992-14.398c0-9.37-7.622-16.992-16.992-16.992c-1.133,0-2.052-0.919-2.052-2.052
			c0-1.133,0.919-2.052,2.052-2.052c11.632,0,21.096,9.463,21.096,21.096C101.102,56.43,92.427,64.038,80.006,64.038z"/>
	</g>
	<g>
		<path class="st0" d="M47.469,31.335c-1.133,0-2.052-0.919-2.052-2.052v-1.03l-25.225,0.001c-5.355-0.003-9.97,0.009-13.602-1.405
			C2.156,25.122,0,21.575,0,16.004C0,5.703,7.492,0.029,21.096,0.029H33.77c0.919-0.074,6.091-0.285,10.317,3.502
			c3.606,3.232,5.434,8.334,5.434,15.162v5.456h30.1c1.133,0,2.052,0.919,2.052,2.052c0,1.133-0.919,2.052-2.052,2.052h-30.1v1.03
			C49.521,30.417,48.602,31.335,47.469,31.335z M21.096,4.133c-11.434,0-16.992,3.883-16.992,11.871c0,4.822,2.009,6.255,3.975,7.02
			c2.912,1.134,7.374,1.12,12.11,1.126l25.228-0.001v-5.456c0-5.584-1.356-9.645-4.029-12.07c-3.164-2.869-7.273-2.503-7.316-2.501
			c-0.067,0.007-0.146,0.011-0.212,0.011H21.096z"/>
	</g>
	<g>
		<path class="st0" d="M131.214,79.671h-18.077c-1.133,0-2.052-0.919-2.052-2.052v-30.52c0-1.133,0.919-2.052,2.052-2.052h18.077
			c1.133,0,2.052,0.919,2.052,2.052s-0.919,2.052-2.052,2.052h-16.025v26.416h16.025c1.133,0,2.052,0.919,2.052,2.052
			C133.266,78.752,132.348,79.671,131.214,79.671z"/>
	</g>
	<g>
		<path class="st0" d="M204.435,79.671h-18.076c-1.133,0-2.052-0.919-2.052-2.052v-30.52c0-1.133,0.919-2.052,2.052-2.052
			c1.133,0,2.052,0.919,2.052,2.052v28.468h16.024c1.133,0,2.052,0.919,2.052,2.052C206.487,78.752,205.568,79.671,204.435,79.671z"
			/>
	</g>
	<g>
		<path class="st0" d="M127.423,63.779h-14.286c-1.133,0-2.052-0.919-2.052-2.052c0-1.133,0.919-2.052,2.052-2.052h14.286
			c1.133,0,2.052,0.919,2.052,2.052C129.475,62.86,128.556,63.779,127.423,63.779z"/>
	</g>
	<g>
		<path class="st0" d="M166.834,64.7h-19.981c-1.133,0-2.052-0.919-2.052-2.052s0.919-2.052,2.052-2.052h19.981
			c1.133,0,2.052,0.919,2.052,2.052S167.968,64.7,166.834,64.7z"/>
	</g>
	<g>
		<path class="st0" d="M168.533,79.671c-1.133,0-2.052-0.919-2.052-2.052V58.787c0-5.313-4.323-9.636-9.637-9.636
			c-5.313,0-9.636,4.323-9.636,9.636v18.832c0,1.133-0.919,2.052-2.052,2.052c-1.133,0-2.052-0.919-2.052-2.052V58.787
			c0-7.576,6.164-13.74,13.74-13.74c7.577,0,13.741,6.164,13.741,13.74v18.832C170.585,78.752,169.666,79.671,168.533,79.671z"/>
	</g>
	<g>
		<path class="st0" d="M192.1,190.568h-7.693c-1.133,0-2.052-0.919-2.052-2.052c0-1.133,0.919-2.052,2.052-2.052h7.693
			c1.133,0,2.052,0.919,2.052,2.052C194.152,189.65,193.234,190.568,192.1,190.568z"/>
	</g>
	<g>
		<path class="st0" d="M50.941,92.393h-6.429c-1.133,0-2.052-0.919-2.052-2.052s0.919-2.052,2.052-2.052h6.429
			c1.133,0,2.052,0.919,2.052,2.052S52.074,92.393,50.941,92.393z"/>
	</g>
	<g>
		<path class="st0" d="M148.458,102.503h-6.429c-1.133,0-2.052-0.919-2.052-2.052s0.919-2.052,2.052-2.052h6.429
			c1.133,0,2.052,0.919,2.052,2.052S149.591,102.503,148.458,102.503z"/>
	</g>
	<g>
		<path class="st0" d="M148.458,166.61h-6.429c-1.133,0-2.052-0.919-2.052-2.052s0.919-2.052,2.052-2.052h6.429
			c1.133,0,2.052,0.919,2.052,2.052S149.591,166.61,148.458,166.61z"/>
	</g>
	<g>
		<path class="st0" d="M243.641,155.142h-18.077c-1.133,0-2.052-0.919-2.052-2.052v-31.784c0-1.133,0.919-2.052,2.052-2.052h18.077
			c1.133,0,2.052,0.919,2.052,2.052s-0.919,2.052-2.052,2.052h-16.025v27.68h16.025c1.133,0,2.052,0.919,2.052,2.052
			C245.693,154.223,244.775,155.142,243.641,155.142z"/>
	</g>
	<g>
		<path class="st0" d="M347.105,153.878c-1.133,0-2.052-0.919-2.052-2.052v-30.52c0-1.133,0.919-2.052,2.052-2.052
			c1.133,0,2.052,0.919,2.052,2.052v30.52C349.157,152.959,348.239,153.878,347.105,153.878z"/>
	</g>
	<g>
		<path class="st0" d="M393.004,155.783c-0.642,0-1.263-0.303-1.657-0.842l-19.979-27.348v24.874c0,1.133-0.919,2.052-2.052,2.052
			c-1.133,0-2.052-0.919-2.052-2.052v-31.161c0-0.888,0.571-1.675,1.415-1.951c0.844-0.274,1.77,0.023,2.294,0.741l19.979,27.348
			v-26.138c0-1.133,0.919-2.052,2.052-2.052c1.133,0,2.052,0.919,2.052,2.052v32.425c0,0.888-0.571,1.675-1.415,1.951
			C393.431,155.75,393.217,155.783,393.004,155.783z"/>
	</g>
	<g>
		<path class="st0" d="M239.85,139.25h-14.286c-1.133,0-2.052-0.919-2.052-2.052s0.919-2.052,2.052-2.052h14.286
			c1.133,0,2.052,0.919,2.052,2.052S240.983,139.25,239.85,139.25z"/>
	</g>
	<g>
		<path class="st0" d="M427.524,155.142h-18.076c-1.133,0-2.052-0.919-2.052-2.052v-31.784c0-1.133,0.919-2.052,2.052-2.052h18.076
			c1.133,0,2.052,0.919,2.052,2.052s-0.919,2.052-2.052,2.052h-16.024v27.68h16.024c1.133,0,2.052,0.919,2.052,2.052
			C429.576,154.223,428.657,155.142,427.524,155.142z"/>
	</g>
	<g>
		<path class="st0" d="M423.732,139.25h-14.285c-1.133,0-2.052-0.919-2.052-2.052s0.919-2.052,2.052-2.052h14.285
			c1.133,0,2.052,0.919,2.052,2.052S424.866,139.25,423.732,139.25z"/>
	</g>
	<g>
		<path class="st0" d="M316.086,155.783c-8.631,0-16.201-8.161-16.201-17.465v-2.862c0-8.934,7.268-16.201,16.201-16.201
			s16.201,7.268,16.201,16.201v2.862C332.287,147.621,324.717,155.783,316.086,155.783z M316.086,123.358
			c-6.67,0-12.097,5.427-12.097,12.097v2.862c0,6.993,5.766,13.361,12.097,13.361s12.097-6.369,12.097-13.361v-2.862
			C328.183,128.784,322.756,123.358,316.086,123.358z"/>
	</g>
	<g>
		<path class="st0" d="M350.169,108.877c0,1.459-1.183,2.878-2.642,2.878l0,0c-1.459,0-2.642-1.419-2.642-2.878v-0.534
			c0-1.459,1.183-2.642,2.642-2.642l0,0c1.459,0,2.642,1.183,2.642,2.642V108.877z"/>
	</g>
	<g>
		<path class="st0" d="M350.32,123.443h-6.428c-1.133,0-2.052-0.919-2.052-2.052c0-1.133,0.919-2.052,2.052-2.052h6.428
			c1.133,0,2.052,0.919,2.052,2.052C352.372,122.524,351.453,123.443,350.32,123.443z"/>
	</g>
	<g>
		<path class="st0" d="M189.573,49.151h-6.429c-1.133,0-2.052-0.919-2.052-2.052s0.919-2.052,2.052-2.052h6.429
			c1.133,0,2.052,0.919,2.052,2.052S190.706,49.151,189.573,49.151z"/>
	</g>
	<g>
		<path class="st0" d="M350.32,155.057h-6.428c-1.133,0-2.052-0.919-2.052-2.052s0.919-2.052,2.052-2.052h6.428
			c1.133,0,2.052,0.919,2.052,2.052S351.453,155.057,350.32,155.057z"/>
	</g>
	<g>
		<path class="st0" d="M447.903,156.822c-6.665,0-10.428-3.94-11.601-6.442c-0.482-1.026-0.039-2.248,0.987-2.729
			c1.027-0.482,2.247-0.039,2.729,0.987c0.107,0.215,2.91,5.657,11.464,3.635c3.216-0.761,5.735-3.652,5.735-6.581
			c0-4.02-3.31-5.809-8.761-8.281c-4.598-2.084-9.81-4.447-9.81-9.97c0-5.165,4.201-9.366,9.366-9.366h1.168
			c3.259,0,6.419,1.162,8.899,3.27c0.863,0.734,0.968,2.029,0.234,2.892c-0.734,0.863-2.029,0.969-2.892,0.234
			c-1.739-1.478-3.955-2.292-6.24-2.292h-1.168c-2.902,0-5.262,2.36-5.262,5.262c0,2.683,2.796,4.145,7.4,6.232
			c4.977,2.256,11.171,5.063,11.171,12.018c0,4.828-3.823,9.375-8.893,10.575C450.792,156.652,449.285,156.822,447.903,156.822z"/>
	</g>
	<g>
		<path class="st0" d="M188.838,190.568c-1.133,0-2.052-0.919-2.052-2.052V139.46h-1.03c-1.133,0-2.052-0.919-2.052-2.052
			s0.919-2.052,2.052-2.052h1.03l-0.001-25.227c-0.005-5.349-0.009-9.968,1.405-13.6c1.726-4.434,5.274-6.59,10.845-6.59
			c10.301,0,15.974,7.492,15.974,21.095v12.676c0.072,0.917,0.286,6.09-3.502,10.316c-3.232,3.606-8.333,5.434-15.162,5.434h-5.456
			v49.057C190.89,189.65,189.971,190.568,188.838,190.568z M190.89,135.356h5.456c5.613,0,9.685-1.369,12.106-4.069
			c2.828-3.155,2.471-7.224,2.466-7.264c-0.008-0.075-0.012-0.149-0.012-0.224v-12.765c0-4.203,0-16.991-11.87-16.991
			c-4.822,0-6.255,2.009-7.02,3.975c-1.134,2.912-1.13,7.379-1.126,12.108L190.89,135.356z"/>
	</g>
</g>
</svg>
