<?xml version="1.0" encoding="UTF-8" standalone="no"?>
<!-- Created with Inkscape (http://www.inkscape.org/) -->

<svg
   xmlns:dc="http://purl.org/dc/elements/1.1/"
   xmlns:cc="http://creativecommons.org/ns#"
   xmlns:rdf="http://www.w3.org/1999/02/22-rdf-syntax-ns#"
   xmlns:svg="http://www.w3.org/2000/svg"
   xmlns="http://www.w3.org/2000/svg"
   version="1.1"
   width="215.04"
   height="190.57"
   viewBox="0 0 215.04 190.57"
   id="svg2"
   xml:space="preserve"><metadata
   id="metadata246"><rdf:RDF><cc:Work
       rdf:about=""><dc:format>image/svg+xml</dc:format><dc:type
         rdf:resource="http://purl.org/dc/dcmitype/StillImage" /><dc:title></dc:title></cc:Work></rdf:RDF></metadata><defs
   id="defs244">
	

		
		
		
		
		
		
		
		
		
		
		
		
		
		
		
		
		
		
		
		
		
		
		
		
		
		
		
		
		
	</defs>

<g
   transform="translate(-1.1936e-5,3.0418e-4)"
   id="g134"
   style="fill:#000000;fill-opacity:1">
			<path
   d="M 187.18,139.48 H 145.24 C 119.59,139.48 111.51,119.08 103.68,99.343 96.495,81.202 89.703,64.068 69.597,64.068 68.464,64.068 67.545,63.149 67.545,62.016 67.545,60.883 68.464,59.964 69.597,59.964 92.491,59.964 100.12,79.214 107.5,97.831 115.15,117.14 122.38,135.38 145.24,135.38 H 187.18 C 188.31,135.38 189.23,136.3 189.23,137.43 189.23,138.56 188.31,139.48 187.18,139.48 z"
   id="path136"
   style="fill:#000000;fill-opacity:1" />
		</g><g
   transform="translate(-1.1936e-5,3.0418e-4)"
   id="g138"
   style="fill:#000000;fill-opacity:1">
			<path
   d="M 47.727,92.393 C 46.594,92.393 45.675,91.474 45.675,90.341 V 26.201 C 45.675,25.068 46.594,24.149 47.727,24.149 48.86,24.149 49.779,25.068 49.779,26.201 V 90.341 C 49.779,91.474 48.86,92.393 47.727,92.393 z"
   id="path140"
   style="fill:#000000;fill-opacity:1" />
		</g><g
   transform="translate(-1.1936e-5,3.0418e-4)"
   id="g142"
   style="fill:#000000;fill-opacity:1">
			<path
   d="M 145.24,166.61 C 144.11,166.61 143.19,165.69 143.19,164.56 V 100.71 C 143.19,99.577 144.11,98.658 145.24,98.658 146.38,98.658 147.29,99.577 147.29,100.71 V 164.56 C 147.29,165.69 146.38,166.61 145.24,166.61 z"
   id="path144"
   style="fill:#000000;fill-opacity:1" />
		</g><g
   transform="translate(-1.1936e-5,3.0418e-4)"
   id="g146"
   style="fill:#000000;fill-opacity:1">
			<path
   d="M 80.006,64.038 H 47.727 C 46.594,64.038 45.675,63.119 45.675,61.986 45.675,60.853 46.594,59.934 47.727,59.934 H 80.006 C 88.464,59.934 96.998,55.482 96.998,45.536 96.998,36.166 89.376,28.544 80.006,28.544 78.873,28.544 77.954,27.625 77.954,26.492 77.954,25.359 78.873,24.44 80.006,24.44 91.638,24.44 101.1,33.903 101.1,45.536 101.1,56.43 92.427,64.038 80.006,64.038 z"
   id="path148"
   style="fill:#000000;fill-opacity:1" />
		</g><g
   transform="translate(-1.1936e-5,3.0418e-4)"
   id="g150"
   style="fill:#000000;fill-opacity:1">
			<path
   d="M 47.469,31.335 C 46.336,31.335 45.417,30.416 45.417,29.283 V 28.253 L 20.192,28.254 C 14.837,28.251 10.222,28.263 6.59,26.849 2.156,25.122 0,21.575 0,16.004 0,5.703 7.492,0.029 21.096,0.029 H 33.77 C 34.689,-0.045 39.861,-0.256 44.087,3.531 47.693,6.763 49.521,11.865 49.521,18.693 V 24.149 H 79.621 C 80.754,24.149 81.673,25.068 81.673,26.201 81.673,27.334 80.754,28.253 79.621,28.253 H 49.521 V 29.283 C 49.521,30.417 48.602,31.335 47.469,31.335 z M 21.096,4.133 C 9.662,4.133 4.104,8.016 4.104,16.004 4.104,20.826 6.113,22.259 8.079,23.024 10.991,24.158 15.453,24.144 20.189,24.15 L 45.417,24.149 V 18.693 C 45.417,13.109 44.061,9.048 41.388,6.623 38.224,3.754 34.115,4.12 34.072,4.122 34.005,4.129 33.926,4.133 33.86,4.133 33.86,4.133 21.096,4.133 21.096,4.133 z"
   id="path152"
   style="fill:#000000;fill-opacity:1" />
		</g><g
   transform="translate(-1.1936e-5,3.0418e-4)"
   id="g174"
   style="fill:#000000;fill-opacity:1">
			<path
   d="M 192.1,190.57 H 184.41 C 183.27,190.57 182.35,189.65 182.35,188.52 182.35,187.38 183.27,186.46 184.41,186.46 H 192.1 C 193.23,186.46 194.15,187.38 194.15,188.52 194.15,189.65 193.23,190.57 192.1,190.57 z"
   id="path176"
   style="fill:#000000;fill-opacity:1" />
		</g><g
   transform="translate(-1.1936e-5,3.0418e-4)"
   id="g178"
   style="fill:#000000;fill-opacity:1">
			<path
   d="M 50.941,92.393 H 44.512 C 43.379,92.393 42.46,91.474 42.46,90.341 42.46,89.208 43.379,88.289 44.512,88.289 H 50.941 C 52.074,88.289 52.993,89.208 52.993,90.341 52.993,91.474 52.074,92.393 50.941,92.393 z"
   id="path180"
   style="fill:#000000;fill-opacity:1" />
		</g><g
   transform="translate(-1.1936e-5,3.0418e-4)"
   id="g182"
   style="fill:#000000;fill-opacity:1">
			<path
   d="M 148.46,102.5 H 142.03 C 140.9,102.5 139.98,101.58 139.98,100.45 139.98,99.318 140.9,98.399 142.03,98.399 H 148.46 C 149.59,98.399 150.51,99.318 150.51,100.45 150.51,101.58 149.59,102.5 148.46,102.5 z"
   id="path184"
   style="fill:#000000;fill-opacity:1" />
		</g><g
   transform="translate(-1.1936e-5,3.0418e-4)"
   id="g186"
   style="fill:#000000;fill-opacity:1">
			<path
   d="M 148.46,166.61 H 142.03 C 140.9,166.61 139.98,165.69 139.98,164.56 139.98,163.43 140.9,162.51 142.03,162.51 H 148.46 C 149.59,162.51 150.51,163.43 150.51,164.56 150.51,165.69 149.59,166.61 148.46,166.61 z"
   id="path188"
   style="fill:#000000;fill-opacity:1" />
		</g><g
   transform="translate(-1.1936e-5,3.0418e-4)"
   id="g238"
   style="fill:#000000;fill-opacity:1">
			<path
   d="M 188.84,190.57 C 187.7,190.57 186.79,189.65 186.79,188.52 V 139.46 H 185.76 C 184.62,139.46 183.7,138.54 183.7,137.41 183.7,136.28 184.62,135.36 185.76,135.36 H 186.79 L 186.78,110.13 C 186.78,104.78 186.78,100.16 188.19,96.529 189.92,92.095 193.46,89.939 199.03,89.939 209.34,89.939 215.01,97.431 215.01,111.03 V 123.71 C 215.08,124.63 215.29,129.8 211.51,134.03 208.27,137.63 203.17,139.46 196.34,139.46 H 190.89 V 188.52 C 190.89,189.65 189.97,190.57 188.84,190.57 z M 190.89,135.36 H 196.35 C 201.96,135.36 206.03,133.99 208.45,131.29 211.28,128.13 210.92,124.06 210.92,124.02 210.91,123.95 210.91,123.87 210.91,123.8 V 111.03 C 210.91,106.83 210.91,94.043 199.04,94.043 194.21,94.043 192.78,96.052 192.02,98.018 190.88,100.93 190.89,105.4 190.89,110.13 V 135.36 z"
   id="path240"
   style="fill:#000000;fill-opacity:1" />
		</g>
</svg>