<?xml version="1.0" encoding="utf-8"?>
<!-- Generator: Adobe Illustrator 17.0.2, SVG Export Plug-In . SVG Version: 6.00 Build 0)  -->
<!DOCTYPE svg PUBLIC "-//W3C//DTD SVG 1.1//EN" "http://www.w3.org/Graphics/SVG/1.1/DTD/svg11.dtd">
<svg version="1.1" id="yellow_outline" xmlns="http://www.w3.org/2000/svg" xmlns:xlink="http://www.w3.org/1999/xlink" x="0px"
	 y="0px" width="731.322px" height="302.06px" viewBox="0 0 731.322 302.06" enable-background="new 0 0 731.322 302.06"
	 xml:space="preserve">
<g>
	<path fill="#F5B825" d="M495.718,296.243c-25.776,0-36.344-28.302-43.339-47.031c-0.747-2.005-1.46-3.915-2.152-5.685
		c-3.486-8.925-8.054-17.436-17.78-19.258c-1.382-0.259-2.878-0.39-4.444-0.39h-15.145c-1.797,0-3.253-1.456-3.253-3.253
		c0-1.797,1.456-2.849,3.253-2.849h15.145c1.967,0,3.865-0.235,5.64,0.097c12.881,2.412,18.675,13.124,22.644,23.285
		c0.702,1.799,1.427,3.74,2.188,5.776c6.745,18.064,15.984,42.801,37.243,42.801c5.253,0,12.498-0.998,17.182-5.755
		c3.319-3.369,4.954-8.29,4.858-14.625c-0.027-1.797,1.408-3.275,3.204-3.302c1.806,0.054,3.274,1.409,3.302,3.204
		c0.123,8.141-2.141,14.632-6.729,19.288C512.575,293.583,505.031,296.243,495.718,296.243z"/>
</g>
<g>
	<path fill="#F5B825" d="M409.832,220.601"/>
</g>
<g>
	<path fill="#F5B825" d="M409.832,247.179c-1.668,0-3.02-1.353-3.02-3.02v-53.29c0-0.805,0.323-1.578,0.895-2.145
		c0.571-0.568,1.343-0.944,2.152-0.875l26.82,0.242c10.361-0.001,18.814,8.452,18.814,18.842c0,9.825-7.747,16.688-18.842,16.688
		h-23.793c-1.668,0-3.253-1.353-3.253-3.02s1.11-3.02,2.777-3.02h24.269c5.906,0,12.801-2.789,12.801-10.648
		c0-7.059-5.742-12.802-12.801-12.802l-23.799-0.215v50.243C412.852,245.827,411.5,247.179,409.832,247.179z"/>
</g>
<g>
	<path fill="#F5B825" d="M340.85,196.07l0.01-23.01c0.05-10.37,0.09-19.33-5.67-25.12c-3.62-3.64-9.07-5.41-16.66-5.41
		c-22.42,0-22.42,17-22.42,33.45v38.56l-62.61,0.03h-3.25c-1.11,0-2.19-0.03-3.25-0.08c-33.69-1.68-44.82-29.76-56.58-59.44
		c-8.61-21.73-17.44-43.99-35.97-54.23c-6.65-3.67-14.54-5.8-24.12-5.8c-1.8,0-3.25,1.45-3.25,3.25c0,1.62,1.17,2.96,2.72,3.2
		c0.17,0.04,0.35,0.05,0.53,0.05c31.87,0,42.64,27.17,54.04,55.92c12.04,30.38,24.48,61.75,62.41,63.55c0.07,0,0.14,0.01,0.22,0.01
		c1.06,0.05,6.5-0.01,6.5-0.01h80.11c9.65-0.39,16.94-3.27,21.69-8.57C341.3,205.72,340.96,197.52,340.85,196.07z M330.4,208.15
		c-3.85,4.23-10.29,6.38-19.14,6.38l-8.65,0.01v-38.56c0-18.2,0.68-26.94,15.92-26.94c5.77,0,9.71,1.14,12.05,3.49
		c3.85,3.87,3.82,11.58,3.77,20.5l-0.01,23.18c0,0.11,0.01,0.23,0.02,0.34C334.37,196.61,334.95,203.13,330.4,208.15z"/>
</g>
<g>
	<path fill="#F5B825" d="M238.6,260.83c0,1.79-1.46,3.25-3.25,3.25h-10.19c-1.8,0-3.26-1.46-3.26-3.25c0-1.8,1.46-3.26,3.26-3.26
		H227v-32.929h6.5v32.929h1.85C237.14,257.57,238.6,259.03,238.6,260.83z"/>
	<path fill="#F5B825" d="M233.5,159.61v60.918l-3.25,0.028c-1.1,0-2.19-0.02-3.25-0.07V159.61c0-1.8,1.45-3.25,3.25-3.25
		C232.05,156.36,233.5,157.81,233.5,159.61z"/>
</g>
<g>
	<path fill="#F5B825" d="M208.009,126.256h-28.655c-1.797,0-3.253-1.456-3.253-3.253V74.62c0-1.797,1.456-3.253,3.253-3.253h28.655
		c1.797,0,3.253,1.456,3.253,3.253c0,1.797-1.456,3.253-3.253,3.253h-25.402v41.878h25.402c1.797,0,3.253,1.456,3.253,3.253
		C211.262,124.8,209.806,126.256,208.009,126.256z"/>
</g>
<g>
	<path fill="#F5B825" d="M298.683,74.62v45.131h25.404c1.797,0,3.253,1.456,3.253,3.253c0,1.797-1.456,3.253-3.253,3.253H295.43
		c-1.797,0-3.253-1.456-3.253-3.253V74.62"/>
</g>
<g>
	<path fill="#F5B825" d="M202,101.063h-22.646c-1.797,0-3.253-1.456-3.253-3.253c0-1.797,1.456-3.253,3.253-3.253H202
		c1.797,0,3.253,1.456,3.253,3.253C205.253,99.607,203.796,101.063,202,101.063z"/>
</g>
<g>
	<path fill="#F5B825" d="M264.479,102.523h-31.676c-1.797,0-3.253-1.456-3.253-3.253s1.456-3.253,3.253-3.253h31.676
		c1.797,0,3.253,1.456,3.253,3.253S266.276,102.523,264.479,102.523z"/>
</g>
<g>
	<path fill="#F5B825" d="M267.169,126.256c-1.797,0-3.253-1.456-3.253-3.253V93.15c0-8.424-6.852-15.277-15.276-15.277
		s-15.276,6.853-15.276,15.277v29.854c0,1.797-1.456,3.253-3.253,3.253c-1.797,0-3.253-1.456-3.253-3.253V93.15
		c0-12.011,9.771-21.783,21.782-21.783c12.011,0,21.782,9.772,21.782,21.783v29.854C270.422,124.8,268.966,126.256,267.169,126.256z
		"/>
</g>
<g>
	<path fill="#F5B825" d="M307.28,298.81c0,1.79-1.45,3.25-3.25,3.25h-10.19c-1.8,0-3.26-1.46-3.26-3.25c0-1.8,1.46-3.26,3.26-3.26
		h2.27v-70.909h6.5v70.909h1.42C305.83,295.55,307.28,297.01,307.28,298.81z"/>
</g>
<g>
	<path fill="#F5B825" d="M80.786,146.423H70.595c-1.797,0-3.253-1.456-3.253-3.253c0-1.797,1.456-3.253,3.253-3.253h10.191
		c1.797,0,3.253,1.456,3.253,3.253C84.039,144.967,82.583,146.423,80.786,146.423z"/>
</g>
<g>
	<path fill="#F5B825" d="M235.347,162.451h-10.191c-1.797,0-3.253-1.456-3.253-3.253s1.456-3.253,3.253-3.253h10.191
		c1.797,0,3.253,1.456,3.253,3.253S237.143,162.451,235.347,162.451z"/>
</g>
<g>
	<path fill="#F5B825" d="M386.24,245.899h-28.657c-1.797,0-3.253-1.456-3.253-3.253V192.26c0-1.797,1.456-3.253,3.253-3.253h28.657
		c1.797,0,3.253,1.456,3.253,3.253c0,1.797-1.456,3.253-3.253,3.253h-25.404v43.88h25.404c1.797,0,3.253,1.456,3.253,3.253
		S388.036,245.899,386.24,245.899z"/>
</g>
<g>
	<path fill="#F5B825" d="M550.258,243.895c-1.797,0-3.253-1.456-3.253-3.253V192.26c0-1.797,6.506-1.797,6.506,0v48.383
		C553.511,242.439,552.055,243.895,550.258,243.895z"/>
</g>
<g>
	<path fill="#F5B825" d="M623.023,246.915c-1.019,0-2.002-0.48-2.627-1.334l-31.674-43.353v39.431c0,1.797-1.456,3.253-3.253,3.253
		s-3.253-1.456-3.253-3.253V192.26c0-1.408,0.905-2.656,2.244-3.093c1.339-0.436,2.803,0.037,3.636,1.174l31.674,43.353V192.26
		c0-1.797,1.456-3.253,3.253-3.253s3.253,1.456,3.253,3.253v51.402c0,1.408-0.905,2.656-2.244,3.093
		C623.699,246.863,623.359,246.915,623.023,246.915z"/>
</g>
<g>
	<path fill="#F5B825" d="M380.228,220.706h-22.646c-1.797,0-3.253-1.456-3.253-3.253c0-1.797,1.456-3.253,3.253-3.253h22.646
		c1.797,0,3.253,1.456,3.253,3.253C383.481,219.249,382.025,220.706,380.228,220.706z"/>
</g>
<g>
	<path fill="#F5B825" d="M677.745,245.899h-28.657c-1.797,0-3.253-1.456-3.253-3.253V192.26c0-1.797,1.456-3.253,3.253-3.253h28.657
		c1.797,0,3.253,1.456,3.253,3.253c0,1.797-1.456,3.253-3.253,3.253h-25.404v43.88h25.404c1.797,0,3.253,1.456,3.253,3.253
		S679.542,245.899,677.745,245.899z"/>
</g>
<g>
	<path fill="#F5B825" d="M671.736,220.706h-22.648c-1.797,0-3.253-1.456-3.253-3.253c0-1.797,1.456-3.253,3.253-3.253h22.648
		c1.797,0,3.253,1.456,3.253,3.253C674.989,219.249,673.532,220.706,671.736,220.706z"/>
</g>
<g>
	<path fill="#F5B825" d="M501.084,246.915c-13.683,0-25.684-12.938-25.684-27.687v-4.538c0-14.162,11.522-25.683,25.684-25.683
		c14.161,0,25.684,11.521,25.684,25.683v4.538C526.768,233.977,514.767,246.915,501.084,246.915z M501.084,195.513
		c-10.574,0-19.178,8.603-19.178,19.177v4.538c0,11.085,9.141,21.181,19.178,21.181c10.037,0,19.178-10.095,19.178-21.181v-4.538
		C520.262,204.115,511.658,195.513,501.084,195.513z"/>
</g>
<g>
	<path fill="#F5B825" d="M555.116,172.557c0,2.313-1.875,4.562-4.188,4.562l0,0c-2.313,0-4.188-2.249-4.188-4.562v-0.847
		c0-2.313,1.875-4.188,4.188-4.188l0,0c2.313,0,4.188,1.875,4.188,4.188V172.557z"/>
</g>
<g>
	<path fill="#F5B825" d="M555.355,195.647h-10.191c-1.797,0-3.253-1.456-3.253-3.253c0-1.797,1.456-3.253,3.253-3.253h10.191
		c1.797,0,3.253,1.456,3.253,3.253C558.608,194.19,557.151,195.647,555.355,195.647z"/>
</g>
<g>
	<path fill="#F5B825" d="M300.524,77.873h-10.191c-1.797,0-3.253-1.456-3.253-3.253c0-1.797,1.456-3.253,3.253-3.253h10.191
		c1.797,0,3.253,1.456,3.253,3.253C303.777,76.416,302.321,77.873,300.524,77.873z"/>
</g>
<g>
	<path fill="#F5B825" d="M555.355,245.765h-10.191c-1.797,0-3.253-1.456-3.253-3.253s1.456-3.253,3.253-3.253h10.191
		c1.797,0,3.253,1.456,3.253,3.253S557.151,245.765,555.355,245.765z"/>
</g>
<g>
	<path fill="#F5B825" d="M710.05,248.563c-10.564,0.001-16.529-6.245-18.39-10.212c-0.762-1.626-0.063-3.564,1.566-4.326
		c1.623-0.761,3.562-0.064,4.326,1.564c0.166,0.341,4.612,8.97,18.173,5.761c5.096-1.207,9.09-5.79,9.09-10.432
		c0-6.373-5.247-9.211-13.89-13.128c-7.29-3.304-15.551-7.049-15.551-15.804c0-8.187,6.66-14.849,14.848-14.849h1.853
		c5.167,0,10.175,1.842,14.107,5.185c1.368,1.164,1.535,3.217,0.37,4.585c-1.163,1.368-3.216,1.538-4.584,0.37
		c-2.756-2.344-6.269-3.635-9.892-3.635h-1.853c-4.6,0-8.342,3.743-8.342,8.343c0,4.253,4.432,6.57,11.732,9.878
		c7.89,3.577,17.71,8.027,17.71,19.054c0,7.654-6.06,14.86-14.099,16.763C714.633,248.294,712.242,248.563,710.05,248.563z"/>
</g>
<g>
	<path fill="#F5B825" d="M126.12,38.02l-22.05,0.22H78.5v-8.65c0-9.6-2.66-17.12-7.91-22.37C63.42,0.07,54.01,0.03,53.68,0H33.44
		C17,0,0,0,0,21.9c0,22.84,17,22.84,33.44,22.84h34.899v-6.5H33.44c-18.19,0-26.94-0.7-26.94-16.34c0-14.74,8.75-15.39,26.94-15.39
		h20.23C55.54,6.52,72,7.29,72,29.59v113.58c0,1.8,1.45,3.25,3.25,3.25s3.25-1.45,3.25-3.25v-41.7h48.33
		c19.69,0,33.44-12.06,33.44-29.33C160.27,53.01,145.29,38.02,126.12,38.02z M126.83,94.97H78.5V44.74h25.6l22.05-0.21
		c15.75,0,27.62,11.87,27.62,27.61C153.77,87.91,140.24,94.97,126.83,94.97z"/>
</g>
</svg>
