<?xml version="1.0" encoding="UTF-8" standalone="no"?>
<!-- Created with Inkscape (http://www.inkscape.org/) -->

<svg
   xmlns:dc="http://purl.org/dc/elements/1.1/"
   xmlns:cc="http://creativecommons.org/ns#"
   xmlns:rdf="http://www.w3.org/1999/02/22-rdf-syntax-ns#"
   xmlns:svg="http://www.w3.org/2000/svg"
   xmlns="http://www.w3.org/2000/svg"
   version="1.1"
   width="461.32"
   height="190.57"
   viewBox="0 0 461.32 190.57"
   id="svg2"
   xml:space="preserve"><metadata
   id="metadata246"><rdf:RDF><cc:Work
       rdf:about=""><dc:format>image/svg+xml</dc:format><dc:type
         rdf:resource="http://purl.org/dc/dcmitype/StillImage" /><dc:title></dc:title></cc:Work></rdf:RDF></metadata><defs
   id="defs244">
	

		
		
		
		
		
		
		
		
		
		
		
		
		
		
		
		
		
		
		
		
		
		
		
		
		
		
		
		
		
	</defs>
<g
   id="over"
   style="fill:#ffffff;fill-opacity:1">
	<g
   id="g5"
   style="fill:#ffffff;fill-opacity:1">
		<g
   id="g7"
   style="fill:#ffffff;fill-opacity:1">
			<path
   d="M 312.7,186.9 C 296.44,186.9 289.77,169.04 285.36,157.23 284.89,155.96 284.44,154.76 284.01,153.65 281.1,146.21 277.6,141.25 269.99,141.25 268.85,141.25 267.93,140.33 267.93,139.2 267.93,138.07 268.85,137.15 269.99,137.15 280.54,137.15 284.93,144.73 287.83,152.15 288.27,153.29 288.73,154.51 289.21,155.79 293.46,167.19 299.29,182.8 312.7,182.8 316.01,182.8 320.58,182.17 323.54,179.17 325.63,177.04 326.67,173.94 326.6,169.94 326.59,168.81 327.49,167.87 328.63,167.86 329.77,167.88 330.69,168.75 330.71,169.88 330.79,175.01 329.36,179.11 326.46,182.05 323.33,185.22 318.58,186.9 312.7,186.9 z"
   id="path9"
   style="fill:#ffffff;fill-opacity:1" />
		</g>
		<g
   id="g11"
   style="fill:#ffffff;fill-opacity:1">
			<path
   d="M 258.52,155.95 C 257.47,155.95 256.62,155.1 256.62,154.04 V 120.43 C 256.62,119.92 256.82,119.43 257.18,119.08 257.54,118.72 258.02,118.52 258.52,118.52 258.53,118.52 258.54,118.52 258.54,118.52 L 275.46,118.68 C 282,118.68 287.33,124.01 287.33,130.56 287.33,136.76 282.44,141.09 275.44,141.09 H 260.43 V 154.05 C 260.43,155.1 259.58,155.95 258.52,155.95 z M 260.43,137.28 H 275.44 C 279.17,137.28 283.52,135.52 283.52,130.56 283.52,126.11 279.89,122.49 275.44,122.49 L 260.43,122.35 V 137.28 z"
   id="path13"
   style="fill:#ffffff;fill-opacity:1" />
		</g>
		<g
   id="g15"
   style="fill:#ffffff;fill-opacity:1">
			<path
   d="M 187.18,139.48 H 145.24 C 119.59,139.48 111.51,119.08 103.68,99.343 96.495,81.202 89.703,64.068 69.597,64.068 68.464,64.068 67.545,63.149 67.545,62.016 67.545,60.883 68.464,59.964 69.597,59.964 92.491,59.964 100.12,79.214 107.5,97.831 115.15,117.14 122.38,135.38 145.24,135.38 H 187.18 C 188.31,135.38 189.23,136.3 189.23,137.43 189.23,138.56 188.31,139.48 187.18,139.48 z"
   id="path17"
   style="fill:#ffffff;fill-opacity:1" />
		</g>
		<g
   id="g19"
   style="fill:#ffffff;fill-opacity:1">
			<path
   d="M 47.727,92.393 C 46.594,92.393 45.675,91.474 45.675,90.341 V 26.201 C 45.675,25.068 46.594,24.149 47.727,24.149 48.86,24.149 49.779,25.068 49.779,26.201 V 90.341 C 49.779,91.474 48.86,92.393 47.727,92.393 z"
   id="path21"
   style="fill:#ffffff;fill-opacity:1" />
		</g>
		<g
   id="g23"
   style="fill:#ffffff;fill-opacity:1">
			<path
   d="M 145.24,166.61 C 144.11,166.61 143.19,165.69 143.19,164.56 V 100.71 C 143.19,99.577 144.11,98.658 145.24,98.658 146.38,98.658 147.29,99.577 147.29,100.71 V 164.56 C 147.29,165.69 146.38,166.61 145.24,166.61 z"
   id="path25"
   style="fill:#ffffff;fill-opacity:1" />
		</g>
		<g
   id="g27"
   style="fill:#ffffff;fill-opacity:1">
			<path
   d="M 80.006,64.038 H 47.727 C 46.594,64.038 45.675,63.119 45.675,61.986 45.675,60.853 46.594,59.934 47.727,59.934 H 80.006 C 88.464,59.934 96.998,55.482 96.998,45.536 96.998,36.166 89.376,28.544 80.006,28.544 78.873,28.544 77.954,27.625 77.954,26.492 77.954,25.359 78.873,24.44 80.006,24.44 91.638,24.44 101.1,33.903 101.1,45.536 101.1,56.43 92.427,64.038 80.006,64.038 z"
   id="path29"
   style="fill:#ffffff;fill-opacity:1" />
		</g>
		<g
   id="g31"
   style="fill:#ffffff;fill-opacity:1">
			<path
   d="M 47.469,31.335 C 46.336,31.335 45.417,30.416 45.417,29.283 V 28.253 L 20.192,28.254 C 14.837,28.251 10.222,28.263 6.59,26.849 2.156,25.122 0,21.575 0,16.004 0,5.703 7.492,0.029 21.096,0.029 H 33.77 C 34.689,-0.045 39.861,-0.256 44.087,3.531 47.693,6.763 49.521,11.865 49.521,18.693 V 24.149 H 79.621 C 80.754,24.149 81.673,25.068 81.673,26.201 81.673,27.334 80.754,28.253 79.621,28.253 H 49.521 V 29.283 C 49.521,30.417 48.602,31.335 47.469,31.335 z M 21.096,4.133 C 9.662,4.133 4.104,8.016 4.104,16.004 4.104,20.826 6.113,22.259 8.079,23.024 10.991,24.158 15.453,24.144 20.189,24.15 L 45.417,24.149 V 18.693 C 45.417,13.109 44.061,9.048 41.388,6.623 38.224,3.754 34.115,4.12 34.072,4.122 34.005,4.129 33.926,4.133 33.86,4.133 33.86,4.133 21.096,4.133 21.096,4.133 z"
   id="path33"
   style="fill:#ffffff;fill-opacity:1" />
		</g>
		<g
   id="g35"
   style="fill:#ffffff;fill-opacity:1">
			<path
   d="M 131.21,79.671 H 113.14 C 112,79.671 111.08,78.752 111.08,77.619 V 47.099 C 111.08,45.966 112,45.047 113.14,45.047 H 131.21 C 132.35,45.047 133.27,45.966 133.27,47.099 133.27,48.232 132.35,49.151 131.21,49.151 H 115.19 V 75.567 H 131.21 C 132.35,75.567 133.27,76.486 133.27,77.619 133.27,78.752 132.35,79.671 131.21,79.671 z"
   id="path37"
   style="fill:#ffffff;fill-opacity:1" />
		</g>
		<g
   id="g39"
   style="fill:#ffffff;fill-opacity:1">
			<path
   d="M 204.43,79.671 H 186.36 C 185.23,79.671 184.31,78.752 184.31,77.619 V 47.099 C 184.31,45.966 185.23,45.047 186.36,45.047 187.49,45.047 188.41,45.966 188.41,47.099 V 75.567 H 204.43 C 205.57,75.567 206.49,76.486 206.49,77.619 206.49,78.752 205.57,79.671 204.43,79.671 z"
   id="path41"
   style="fill:#ffffff;fill-opacity:1" />
		</g>
		<g
   id="g43"
   style="fill:#ffffff;fill-opacity:1">
			<path
   d="M 127.42,63.779 H 113.14 C 112,63.779 111.08,62.86 111.08,61.727 111.08,60.594 112,59.675 113.14,59.675 H 127.42 C 128.56,59.675 129.47,60.594 129.47,61.727 129.47,62.86 128.56,63.779 127.42,63.779 z"
   id="path45"
   style="fill:#ffffff;fill-opacity:1" />
		</g>
		<g
   id="g47"
   style="fill:#ffffff;fill-opacity:1">
			<path
   d="M 166.83,64.7 H 146.85 C 145.72,64.7 144.8,63.781 144.8,62.648 144.8,61.515 145.72,60.596 146.85,60.596 H 166.83 C 167.97,60.596 168.89,61.515 168.89,62.648 168.89,63.781 167.97,64.7 166.83,64.7 z"
   id="path49"
   style="fill:#ffffff;fill-opacity:1" />
		</g>
		<g
   id="g51"
   style="fill:#ffffff;fill-opacity:1">
			<path
   d="M 168.53,79.671 C 167.4,79.671 166.48,78.752 166.48,77.619 V 58.787 C 166.48,53.474 162.16,49.151 156.84,49.151 151.53,49.151 147.21,53.474 147.21,58.787 V 77.619 C 147.21,78.752 146.29,79.671 145.16,79.671 144.02,79.671 143.1,78.752 143.1,77.619 V 58.787 C 143.1,51.211 149.27,45.047 156.84,45.047 164.42,45.047 170.59,51.211 170.59,58.787 V 77.619 C 170.59,78.752 169.67,79.671 168.53,79.671 z"
   id="path53"
   style="fill:#ffffff;fill-opacity:1" />
		</g>
		<g
   id="g55"
   style="fill:#ffffff;fill-opacity:1">
			<path
   d="M 192.1,190.57 H 184.41 C 183.27,190.57 182.35,189.65 182.35,188.52 182.35,187.38 183.27,186.46 184.41,186.46 H 192.1 C 193.23,186.46 194.15,187.38 194.15,188.52 194.15,189.65 193.23,190.57 192.1,190.57 z"
   id="path57"
   style="fill:#ffffff;fill-opacity:1" />
		</g>
		<g
   id="g59"
   style="fill:#ffffff;fill-opacity:1">
			<path
   d="M 50.941,92.393 H 44.512 C 43.379,92.393 42.46,91.474 42.46,90.341 42.46,89.208 43.379,88.289 44.512,88.289 H 50.941 C 52.074,88.289 52.993,89.208 52.993,90.341 52.993,91.474 52.074,92.393 50.941,92.393 z"
   id="path61"
   style="fill:#ffffff;fill-opacity:1" />
		</g>
		<g
   id="g63"
   style="fill:#ffffff;fill-opacity:1">
			<path
   d="M 148.46,102.5 H 142.03 C 140.9,102.5 139.98,101.58 139.98,100.45 139.98,99.318 140.9,98.399 142.03,98.399 H 148.46 C 149.59,98.399 150.51,99.318 150.51,100.45 150.51,101.58 149.59,102.5 148.46,102.5 z"
   id="path65"
   style="fill:#ffffff;fill-opacity:1" />
		</g>
		<g
   id="g67"
   style="fill:#ffffff;fill-opacity:1">
			<path
   d="M 148.46,166.61 H 142.03 C 140.9,166.61 139.98,165.69 139.98,164.56 139.98,163.43 140.9,162.51 142.03,162.51 H 148.46 C 149.59,162.51 150.51,163.43 150.51,164.56 150.51,165.69 149.59,166.61 148.46,166.61 z"
   id="path69"
   style="fill:#ffffff;fill-opacity:1" />
		</g>
		<g
   id="g71"
   style="fill:#ffffff;fill-opacity:1">
			<path
   d="M 243.64,155.14 H 225.56 C 224.43,155.14 223.51,154.22 223.51,153.09 V 121.31 C 223.51,120.17 224.43,119.25 225.56,119.25 H 243.64 C 244.77,119.25 245.69,120.17 245.69,121.31 245.69,122.44 244.77,123.36 243.64,123.36 H 227.62 V 151.04 H 243.64 C 244.77,151.04 245.69,151.96 245.69,153.09 245.69,154.22 244.78,155.14 243.64,155.14 z"
   id="path73"
   style="fill:#ffffff;fill-opacity:1" />
		</g>
		<g
   id="g75"
   style="fill:#ffffff;fill-opacity:1">
			<path
   d="M 347.11,153.88 C 345.97,153.88 345.05,152.96 345.05,151.83 V 121.31 C 345.05,120.17 345.97,119.25 347.11,119.25 348.24,119.25 349.16,120.17 349.16,121.31 V 151.83 C 349.16,152.96 348.24,153.88 347.11,153.88 z"
   id="path77"
   style="fill:#ffffff;fill-opacity:1" />
		</g>
		<g
   id="g79"
   style="fill:#ffffff;fill-opacity:1">
			<path
   d="M 393,155.78 C 392.36,155.78 391.74,155.48 391.35,154.94 L 371.37,127.59 V 152.47 C 371.37,153.6 370.45,154.52 369.32,154.52 368.18,154.52 367.26,153.6 367.26,152.47 V 121.31 C 367.26,120.42 367.84,119.63 368.68,119.35 369.52,119.08 370.45,119.38 370.97,120.1 L 390.95,147.44 V 121.31 C 390.95,120.17 391.87,119.25 393,119.25 394.14,119.25 395.06,120.17 395.06,121.31 V 153.73 C 395.06,154.62 394.49,155.41 393.64,155.68 393.43,155.75 393.22,155.78 393,155.78 z"
   id="path81"
   style="fill:#ffffff;fill-opacity:1" />
		</g>
		<g
   id="g83"
   style="fill:#ffffff;fill-opacity:1">
			<path
   d="M 239.85,139.25 H 225.56 C 224.43,139.25 223.51,138.33 223.51,137.2 223.51,136.07 224.43,135.15 225.56,135.15 H 239.85 C 240.98,135.15 241.9,136.07 241.9,137.2 241.9,138.33 240.98,139.25 239.85,139.25 z"
   id="path85"
   style="fill:#ffffff;fill-opacity:1" />
		</g>
		<g
   id="g87"
   style="fill:#ffffff;fill-opacity:1">
			<path
   d="M 427.52,155.14 H 409.45 C 408.31,155.14 407.4,154.22 407.4,153.09 V 121.31 C 407.4,120.17 408.31,119.25 409.45,119.25 H 427.52 C 428.66,119.25 429.58,120.17 429.58,121.31 429.58,122.44 428.66,123.36 427.52,123.36 H 411.5 V 151.04 H 427.52 C 428.66,151.04 429.58,151.96 429.58,153.09 429.58,154.22 428.66,155.14 427.52,155.14 z"
   id="path89"
   style="fill:#ffffff;fill-opacity:1" />
		</g>
		<g
   id="g91"
   style="fill:#ffffff;fill-opacity:1">
			<path
   d="M 423.73,139.25 H 409.45 C 408.31,139.25 407.39,138.33 407.39,137.2 407.39,136.07 408.31,135.15 409.45,135.15 H 423.73 C 424.87,135.15 425.78,136.07 425.78,137.2 425.78,138.33 424.87,139.25 423.73,139.25 z"
   id="path93"
   style="fill:#ffffff;fill-opacity:1" />
		</g>
		<g
   id="g95"
   style="fill:#ffffff;fill-opacity:1">
			<path
   d="M 316.09,155.78 C 307.46,155.78 299.88,147.62 299.88,138.32 V 135.46 C 299.88,126.52 307.15,119.25 316.09,119.25 325.02,119.25 332.29,126.52 332.29,135.46 V 138.32 C 332.29,147.62 324.72,155.78 316.09,155.78 z M 316.09,123.36 C 309.42,123.36 303.99,128.78 303.99,135.46 V 138.32 C 303.99,145.31 309.76,151.68 316.09,151.68 322.42,151.68 328.18,145.31 328.18,138.32 V 135.46 C 328.18,128.78 322.76,123.36 316.09,123.36 z"
   id="path97"
   style="fill:#ffffff;fill-opacity:1" />
		</g>
		<g
   id="g99"
   style="fill:#ffffff;fill-opacity:1">
			<path
   d="M 350.17,108.88 C 350.17,110.34 348.99,111.75 347.53,111.75 L 347.53,111.75 C 346.07,111.75 344.88,110.34 344.88,108.88 V 108.34 C 344.88,106.88 346.07,105.7 347.53,105.7 L 347.53,105.7 C 348.99,105.7 350.17,106.88 350.17,108.34 V 108.88 z"
   id="path101"
   style="fill:#ffffff;fill-opacity:1" />
		</g>
		<g
   id="g103"
   style="fill:#ffffff;fill-opacity:1">
			<path
   d="M 350.32,123.44 H 343.89 C 342.76,123.44 341.84,122.52 341.84,121.39 341.84,120.26 342.76,119.34 343.89,119.34 H 350.32 C 351.45,119.34 352.37,120.26 352.37,121.39 352.37,122.52 351.45,123.44 350.32,123.44 z"
   id="path105"
   style="fill:#ffffff;fill-opacity:1" />
		</g>
		<g
   id="g107"
   style="fill:#ffffff;fill-opacity:1">
			<path
   d="M 189.57,49.151 H 183.14 C 182.01,49.151 181.09,48.232 181.09,47.099 181.09,45.966 182.01,45.047 183.14,45.047 H 189.57 C 190.71,45.047 191.62,45.966 191.62,47.099 191.62,48.232 190.71,49.151 189.57,49.151 z"
   id="path109"
   style="fill:#ffffff;fill-opacity:1" />
		</g>
		<g
   id="g111"
   style="fill:#ffffff;fill-opacity:1">
			<path
   d="M 350.32,155.06 H 343.89 C 342.76,155.06 341.84,154.14 341.84,153 341.84,151.87 342.76,150.95 343.89,150.95 H 350.32 C 351.45,150.95 352.37,151.87 352.37,153 352.37,154.14 351.45,155.06 350.32,155.06 z"
   id="path113"
   style="fill:#ffffff;fill-opacity:1" />
		</g>
		<g
   id="g115"
   style="fill:#ffffff;fill-opacity:1">
			<path
   d="M 447.9,156.82 C 441.24,156.82 437.48,152.88 436.3,150.38 435.82,149.35 436.26,148.13 437.29,147.65 438.32,147.17 439.54,147.61 440.02,148.64 440.13,148.85 442.93,154.29 451.48,152.27 454.7,151.51 457.22,148.62 457.22,145.69 457.22,141.67 453.91,139.88 448.46,137.41 443.86,135.33 438.65,132.96 438.65,127.44 438.65,122.28 442.85,118.07 448.01,118.07 H 449.18 C 452.44,118.07 455.6,119.24 458.08,121.34 458.94,122.08 459.05,123.37 458.31,124.24 457.58,125.1 456.28,125.21 455.42,124.47 453.68,122.99 451.47,122.18 449.18,122.18 H 448.01 C 445.11,122.18 442.75,124.54 442.75,127.44 442.75,130.12 445.55,131.59 450.15,133.67 455.13,135.93 461.32,138.74 461.32,145.69 461.32,150.52 457.5,155.07 452.43,156.27 450.79,156.65 449.29,156.82 447.9,156.82 z"
   id="path117"
   style="fill:#ffffff;fill-opacity:1" />
		</g>
		<g
   id="g119"
   style="fill:#ffffff;fill-opacity:1">
			<path
   d="M 188.84,190.57 C 187.7,190.57 186.79,189.65 186.79,188.52 V 139.46 H 185.76 C 184.62,139.46 183.7,138.54 183.7,137.41 183.7,136.28 184.62,135.36 185.76,135.36 H 186.79 L 186.78,110.13 C 186.78,104.78 186.78,100.16 188.19,96.529 189.92,92.095 193.46,89.939 199.03,89.939 209.34,89.939 215.01,97.431 215.01,111.03 V 123.71 C 215.08,124.63 215.29,129.8 211.51,134.03 208.27,137.63 203.17,139.46 196.34,139.46 H 190.89 V 188.52 C 190.89,189.65 189.97,190.57 188.84,190.57 z M 190.89,135.36 H 196.35 C 201.96,135.36 206.03,133.99 208.45,131.29 211.28,128.13 210.92,124.06 210.92,124.02 210.91,123.95 210.91,123.87 210.91,123.8 V 111.03 C 210.91,106.83 210.91,94.043 199.04,94.043 194.21,94.043 192.78,96.052 192.02,98.018 190.88,100.93 190.89,105.4 190.89,110.13 V 135.36 z"
   id="path121"
   style="fill:#ffffff;fill-opacity:1" />
		</g>
	</g>
</g>
<g
   id="g126"
   style="fill:#ffffff;fill-opacity:1">
			<path
   d="M 312.7,186.9 C 296.44,186.9 289.77,169.04 285.36,157.23 284.89,155.96 284.44,154.76 284.01,153.65 281.1,146.21 277.6,141.25 269.99,141.25 268.85,141.25 267.93,140.33 267.93,139.2 267.93,138.07 268.85,137.15 269.99,137.15 280.54,137.15 284.93,144.73 287.83,152.15 288.27,153.29 288.73,154.51 289.21,155.79 293.46,167.19 299.29,182.8 312.7,182.8 316.01,182.8 320.58,182.17 323.54,179.17 325.63,177.04 326.67,173.94 326.6,169.94 326.59,168.81 327.49,167.87 328.63,167.86 329.77,167.88 330.69,168.75 330.71,169.88 330.79,175.01 329.36,179.11 326.46,182.05 323.33,185.22 318.58,186.9 312.7,186.9 z"
   id="path128"
   style="fill:#ffffff;fill-opacity:1" />
		</g><g
   id="g130"
   style="fill:#ffffff;fill-opacity:1">
			<path
   d="M 258.52,155.95 C 257.47,155.95 256.62,155.1 256.62,154.04 V 120.43 C 256.62,119.92 256.82,119.43 257.18,119.08 257.54,118.72 258.02,118.52 258.52,118.52 258.53,118.52 258.54,118.52 258.54,118.52 L 275.46,118.68 C 282,118.68 287.33,124.01 287.33,130.56 287.33,136.76 282.44,141.09 275.44,141.09 H 260.43 V 154.05 C 260.43,155.1 259.58,155.95 258.52,155.95 z M 260.43,137.28 H 275.44 C 279.17,137.28 283.52,135.52 283.52,130.56 283.52,126.11 279.89,122.49 275.44,122.49 L 260.43,122.35 V 137.28 z"
   id="path132"
   style="fill:#ffffff;fill-opacity:1" />
		</g><g
   id="g134"
   style="fill:#ffffff;fill-opacity:1">
			<path
   d="M 187.18,139.48 H 145.24 C 119.59,139.48 111.51,119.08 103.68,99.343 96.495,81.202 89.703,64.068 69.597,64.068 68.464,64.068 67.545,63.149 67.545,62.016 67.545,60.883 68.464,59.964 69.597,59.964 92.491,59.964 100.12,79.214 107.5,97.831 115.15,117.14 122.38,135.38 145.24,135.38 H 187.18 C 188.31,135.38 189.23,136.3 189.23,137.43 189.23,138.56 188.31,139.48 187.18,139.48 z"
   id="path136"
   style="fill:#ffffff;fill-opacity:1" />
		</g><g
   id="g138"
   style="fill:#ffffff;fill-opacity:1">
			<path
   d="M 47.727,92.393 C 46.594,92.393 45.675,91.474 45.675,90.341 V 26.201 C 45.675,25.068 46.594,24.149 47.727,24.149 48.86,24.149 49.779,25.068 49.779,26.201 V 90.341 C 49.779,91.474 48.86,92.393 47.727,92.393 z"
   id="path140"
   style="fill:#ffffff;fill-opacity:1" />
		</g><g
   id="g142"
   style="fill:#ffffff;fill-opacity:1">
			<path
   d="M 145.24,166.61 C 144.11,166.61 143.19,165.69 143.19,164.56 V 100.71 C 143.19,99.577 144.11,98.658 145.24,98.658 146.38,98.658 147.29,99.577 147.29,100.71 V 164.56 C 147.29,165.69 146.38,166.61 145.24,166.61 z"
   id="path144"
   style="fill:#ffffff;fill-opacity:1" />
		</g><g
   id="g146"
   style="fill:#ffffff;fill-opacity:1">
			<path
   d="M 80.006,64.038 H 47.727 C 46.594,64.038 45.675,63.119 45.675,61.986 45.675,60.853 46.594,59.934 47.727,59.934 H 80.006 C 88.464,59.934 96.998,55.482 96.998,45.536 96.998,36.166 89.376,28.544 80.006,28.544 78.873,28.544 77.954,27.625 77.954,26.492 77.954,25.359 78.873,24.44 80.006,24.44 91.638,24.44 101.1,33.903 101.1,45.536 101.1,56.43 92.427,64.038 80.006,64.038 z"
   id="path148"
   style="fill:#ffffff;fill-opacity:1" />
		</g><g
   id="g150"
   style="fill:#ffffff;fill-opacity:1">
			<path
   d="M 47.469,31.335 C 46.336,31.335 45.417,30.416 45.417,29.283 V 28.253 L 20.192,28.254 C 14.837,28.251 10.222,28.263 6.59,26.849 2.156,25.122 0,21.575 0,16.004 0,5.703 7.492,0.029 21.096,0.029 H 33.77 C 34.689,-0.045 39.861,-0.256 44.087,3.531 47.693,6.763 49.521,11.865 49.521,18.693 V 24.149 H 79.621 C 80.754,24.149 81.673,25.068 81.673,26.201 81.673,27.334 80.754,28.253 79.621,28.253 H 49.521 V 29.283 C 49.521,30.417 48.602,31.335 47.469,31.335 z M 21.096,4.133 C 9.662,4.133 4.104,8.016 4.104,16.004 4.104,20.826 6.113,22.259 8.079,23.024 10.991,24.158 15.453,24.144 20.189,24.15 L 45.417,24.149 V 18.693 C 45.417,13.109 44.061,9.048 41.388,6.623 38.224,3.754 34.115,4.12 34.072,4.122 34.005,4.129 33.926,4.133 33.86,4.133 33.86,4.133 21.096,4.133 21.096,4.133 z"
   id="path152"
   style="fill:#ffffff;fill-opacity:1" />
		</g><g
   id="g154"
   style="fill:#ffffff;fill-opacity:1">
			<path
   d="M 131.21,79.671 H 113.14 C 112,79.671 111.08,78.752 111.08,77.619 V 47.099 C 111.08,45.966 112,45.047 113.14,45.047 H 131.21 C 132.35,45.047 133.27,45.966 133.27,47.099 133.27,48.232 132.35,49.151 131.21,49.151 H 115.19 V 75.567 H 131.21 C 132.35,75.567 133.27,76.486 133.27,77.619 133.27,78.752 132.35,79.671 131.21,79.671 z"
   id="path156"
   style="fill:#ffffff;fill-opacity:1" />
		</g><g
   id="g158"
   style="fill:#ffffff;fill-opacity:1">
			<path
   d="M 204.43,79.671 H 186.36 C 185.23,79.671 184.31,78.752 184.31,77.619 V 47.099 C 184.31,45.966 185.23,45.047 186.36,45.047 187.49,45.047 188.41,45.966 188.41,47.099 V 75.567 H 204.43 C 205.57,75.567 206.49,76.486 206.49,77.619 206.49,78.752 205.57,79.671 204.43,79.671 z"
   id="path160"
   style="fill:#ffffff;fill-opacity:1" />
		</g><g
   id="g162"
   style="fill:#ffffff;fill-opacity:1">
			<path
   d="M 127.42,63.779 H 113.14 C 112,63.779 111.08,62.86 111.08,61.727 111.08,60.594 112,59.675 113.14,59.675 H 127.42 C 128.56,59.675 129.47,60.594 129.47,61.727 129.47,62.86 128.56,63.779 127.42,63.779 z"
   id="path164"
   style="fill:#ffffff;fill-opacity:1" />
		</g><g
   id="g166"
   style="fill:#ffffff;fill-opacity:1">
			<path
   d="M 166.83,64.7 H 146.85 C 145.72,64.7 144.8,63.781 144.8,62.648 144.8,61.515 145.72,60.596 146.85,60.596 H 166.83 C 167.97,60.596 168.89,61.515 168.89,62.648 168.89,63.781 167.97,64.7 166.83,64.7 z"
   id="path168"
   style="fill:#ffffff;fill-opacity:1" />
		</g><g
   id="g170"
   style="fill:#ffffff;fill-opacity:1">
			<path
   d="M 168.53,79.671 C 167.4,79.671 166.48,78.752 166.48,77.619 V 58.787 C 166.48,53.474 162.16,49.151 156.84,49.151 151.53,49.151 147.21,53.474 147.21,58.787 V 77.619 C 147.21,78.752 146.29,79.671 145.16,79.671 144.02,79.671 143.1,78.752 143.1,77.619 V 58.787 C 143.1,51.211 149.27,45.047 156.84,45.047 164.42,45.047 170.59,51.211 170.59,58.787 V 77.619 C 170.59,78.752 169.67,79.671 168.53,79.671 z"
   id="path172"
   style="fill:#ffffff;fill-opacity:1" />
		</g><g
   id="g174"
   style="fill:#ffffff;fill-opacity:1">
			<path
   d="M 192.1,190.57 H 184.41 C 183.27,190.57 182.35,189.65 182.35,188.52 182.35,187.38 183.27,186.46 184.41,186.46 H 192.1 C 193.23,186.46 194.15,187.38 194.15,188.52 194.15,189.65 193.23,190.57 192.1,190.57 z"
   id="path176"
   style="fill:#ffffff;fill-opacity:1" />
		</g><g
   id="g178"
   style="fill:#ffffff;fill-opacity:1">
			<path
   d="M 50.941,92.393 H 44.512 C 43.379,92.393 42.46,91.474 42.46,90.341 42.46,89.208 43.379,88.289 44.512,88.289 H 50.941 C 52.074,88.289 52.993,89.208 52.993,90.341 52.993,91.474 52.074,92.393 50.941,92.393 z"
   id="path180"
   style="fill:#ffffff;fill-opacity:1" />
		</g><g
   id="g182"
   style="fill:#ffffff;fill-opacity:1">
			<path
   d="M 148.46,102.5 H 142.03 C 140.9,102.5 139.98,101.58 139.98,100.45 139.98,99.318 140.9,98.399 142.03,98.399 H 148.46 C 149.59,98.399 150.51,99.318 150.51,100.45 150.51,101.58 149.59,102.5 148.46,102.5 z"
   id="path184"
   style="fill:#ffffff;fill-opacity:1" />
		</g><g
   id="g186"
   style="fill:#ffffff;fill-opacity:1">
			<path
   d="M 148.46,166.61 H 142.03 C 140.9,166.61 139.98,165.69 139.98,164.56 139.98,163.43 140.9,162.51 142.03,162.51 H 148.46 C 149.59,162.51 150.51,163.43 150.51,164.56 150.51,165.69 149.59,166.61 148.46,166.61 z"
   id="path188"
   style="fill:#ffffff;fill-opacity:1" />
		</g><g
   id="g190"
   style="fill:#ffffff;fill-opacity:1">
			<path
   d="M 243.64,155.14 H 225.56 C 224.43,155.14 223.51,154.22 223.51,153.09 V 121.31 C 223.51,120.17 224.43,119.25 225.56,119.25 H 243.64 C 244.77,119.25 245.69,120.17 245.69,121.31 245.69,122.44 244.77,123.36 243.64,123.36 H 227.62 V 151.04 H 243.64 C 244.77,151.04 245.69,151.96 245.69,153.09 245.69,154.22 244.78,155.14 243.64,155.14 z"
   id="path192"
   style="fill:#ffffff;fill-opacity:1" />
		</g><g
   id="g194"
   style="fill:#ffffff;fill-opacity:1">
			<path
   d="M 347.11,153.88 C 345.97,153.88 345.05,152.96 345.05,151.83 V 121.31 C 345.05,120.17 345.97,119.25 347.11,119.25 348.24,119.25 349.16,120.17 349.16,121.31 V 151.83 C 349.16,152.96 348.24,153.88 347.11,153.88 z"
   id="path196"
   style="fill:#ffffff;fill-opacity:1" />
		</g><g
   id="g198"
   style="fill:#ffffff;fill-opacity:1">
			<path
   d="M 393,155.78 C 392.36,155.78 391.74,155.48 391.35,154.94 L 371.37,127.59 V 152.47 C 371.37,153.6 370.45,154.52 369.32,154.52 368.18,154.52 367.26,153.6 367.26,152.47 V 121.31 C 367.26,120.42 367.84,119.63 368.68,119.35 369.52,119.08 370.45,119.38 370.97,120.1 L 390.95,147.44 V 121.31 C 390.95,120.17 391.87,119.25 393,119.25 394.14,119.25 395.06,120.17 395.06,121.31 V 153.73 C 395.06,154.62 394.49,155.41 393.64,155.68 393.43,155.75 393.22,155.78 393,155.78 z"
   id="path200"
   style="fill:#ffffff;fill-opacity:1" />
		</g><g
   id="g202"
   style="fill:#ffffff;fill-opacity:1">
			<path
   d="M 239.85,139.25 H 225.56 C 224.43,139.25 223.51,138.33 223.51,137.2 223.51,136.07 224.43,135.15 225.56,135.15 H 239.85 C 240.98,135.15 241.9,136.07 241.9,137.2 241.9,138.33 240.98,139.25 239.85,139.25 z"
   id="path204"
   style="fill:#ffffff;fill-opacity:1" />
		</g><g
   id="g206"
   style="fill:#ffffff;fill-opacity:1">
			<path
   d="M 427.52,155.14 H 409.45 C 408.31,155.14 407.4,154.22 407.4,153.09 V 121.31 C 407.4,120.17 408.31,119.25 409.45,119.25 H 427.52 C 428.66,119.25 429.58,120.17 429.58,121.31 429.58,122.44 428.66,123.36 427.52,123.36 H 411.5 V 151.04 H 427.52 C 428.66,151.04 429.58,151.96 429.58,153.09 429.58,154.22 428.66,155.14 427.52,155.14 z"
   id="path208"
   style="fill:#ffffff;fill-opacity:1" />
		</g><g
   id="g210"
   style="fill:#ffffff;fill-opacity:1">
			<path
   d="M 423.73,139.25 H 409.45 C 408.31,139.25 407.39,138.33 407.39,137.2 407.39,136.07 408.31,135.15 409.45,135.15 H 423.73 C 424.87,135.15 425.78,136.07 425.78,137.2 425.78,138.33 424.87,139.25 423.73,139.25 z"
   id="path212"
   style="fill:#ffffff;fill-opacity:1" />
		</g><g
   id="g214"
   style="fill:#ffffff;fill-opacity:1">
			<path
   d="M 316.09,155.78 C 307.46,155.78 299.88,147.62 299.88,138.32 V 135.46 C 299.88,126.52 307.15,119.25 316.09,119.25 325.02,119.25 332.29,126.52 332.29,135.46 V 138.32 C 332.29,147.62 324.72,155.78 316.09,155.78 z M 316.09,123.36 C 309.42,123.36 303.99,128.78 303.99,135.46 V 138.32 C 303.99,145.31 309.76,151.68 316.09,151.68 322.42,151.68 328.18,145.31 328.18,138.32 V 135.46 C 328.18,128.78 322.76,123.36 316.09,123.36 z"
   id="path216"
   style="fill:#ffffff;fill-opacity:1" />
		</g><g
   id="g218"
   style="fill:#ffffff;fill-opacity:1">
			<path
   d="M 350.17,108.88 C 350.17,110.34 348.99,111.75 347.53,111.75 L 347.53,111.75 C 346.07,111.75 344.88,110.34 344.88,108.88 V 108.34 C 344.88,106.88 346.07,105.7 347.53,105.7 L 347.53,105.7 C 348.99,105.7 350.17,106.88 350.17,108.34 V 108.88 z"
   id="path220"
   style="fill:#ffffff;fill-opacity:1" />
		</g><g
   id="g222"
   style="fill:#ffffff;fill-opacity:1">
			<path
   d="M 350.32,123.44 H 343.89 C 342.76,123.44 341.84,122.52 341.84,121.39 341.84,120.26 342.76,119.34 343.89,119.34 H 350.32 C 351.45,119.34 352.37,120.26 352.37,121.39 352.37,122.52 351.45,123.44 350.32,123.44 z"
   id="path224"
   style="fill:#ffffff;fill-opacity:1" />
		</g><g
   id="g226"
   style="fill:#ffffff;fill-opacity:1">
			<path
   d="M 189.57,49.151 H 183.14 C 182.01,49.151 181.09,48.232 181.09,47.099 181.09,45.966 182.01,45.047 183.14,45.047 H 189.57 C 190.71,45.047 191.62,45.966 191.62,47.099 191.62,48.232 190.71,49.151 189.57,49.151 z"
   id="path228"
   style="fill:#ffffff;fill-opacity:1" />
		</g><g
   id="g230"
   style="fill:#ffffff;fill-opacity:1">
			<path
   d="M 350.32,155.06 H 343.89 C 342.76,155.06 341.84,154.14 341.84,153 341.84,151.87 342.76,150.95 343.89,150.95 H 350.32 C 351.45,150.95 352.37,151.87 352.37,153 352.37,154.14 351.45,155.06 350.32,155.06 z"
   id="path232"
   style="fill:#ffffff;fill-opacity:1" />
		</g><g
   id="g234"
   style="fill:#ffffff;fill-opacity:1">
			<path
   d="M 447.9,156.82 C 441.24,156.82 437.48,152.88 436.3,150.38 435.82,149.35 436.26,148.13 437.29,147.65 438.32,147.17 439.54,147.61 440.02,148.64 440.13,148.85 442.93,154.29 451.48,152.27 454.7,151.51 457.22,148.62 457.22,145.69 457.22,141.67 453.91,139.88 448.46,137.41 443.86,135.33 438.65,132.96 438.65,127.44 438.65,122.28 442.85,118.07 448.01,118.07 H 449.18 C 452.44,118.07 455.6,119.24 458.08,121.34 458.94,122.08 459.05,123.37 458.31,124.24 457.58,125.1 456.28,125.21 455.42,124.47 453.68,122.99 451.47,122.18 449.18,122.18 H 448.01 C 445.11,122.18 442.75,124.54 442.75,127.44 442.75,130.12 445.55,131.59 450.15,133.67 455.13,135.93 461.32,138.74 461.32,145.69 461.32,150.52 457.5,155.07 452.43,156.27 450.79,156.65 449.29,156.82 447.9,156.82 z"
   id="path236"
   style="fill:#ffffff;fill-opacity:1" />
		</g><g
   id="g238"
   style="fill:#ffffff;fill-opacity:1">
			<path
   d="M 188.84,190.57 C 187.7,190.57 186.79,189.65 186.79,188.52 V 139.46 H 185.76 C 184.62,139.46 183.7,138.54 183.7,137.41 183.7,136.28 184.62,135.36 185.76,135.36 H 186.79 L 186.78,110.13 C 186.78,104.78 186.78,100.16 188.19,96.529 189.92,92.095 193.46,89.939 199.03,89.939 209.34,89.939 215.01,97.431 215.01,111.03 V 123.71 C 215.08,124.63 215.29,129.8 211.51,134.03 208.27,137.63 203.17,139.46 196.34,139.46 H 190.89 V 188.52 C 190.89,189.65 189.97,190.57 188.84,190.57 z M 190.89,135.36 H 196.35 C 201.96,135.36 206.03,133.99 208.45,131.29 211.28,128.13 210.92,124.06 210.92,124.02 210.91,123.95 210.91,123.87 210.91,123.8 V 111.03 C 210.91,106.83 210.91,94.043 199.04,94.043 194.21,94.043 192.78,96.052 192.02,98.018 190.88,100.93 190.89,105.4 190.89,110.13 V 135.36 z"
   id="path240"
   style="fill:#ffffff;fill-opacity:1" />
		</g>
</svg>