<?xml version="1.0" encoding="utf-8"?>
<!-- Generator: Adobe Illustrator 17.0.0, SVG Export Plug-In . SVG Version: 6.00 Build 0)  -->
<!DOCTYPE svg PUBLIC "-//W3C//DTD SVG 1.1//EN" "http://www.w3.org/Graphics/SVG/1.1/DTD/svg11.dtd">
<svg version="1.1" id="Layer_1" xmlns="http://www.w3.org/2000/svg" xmlns:xlink="http://www.w3.org/1999/xlink" x="0px" y="0px"
	 width="73px" height="73px" viewBox="0 0 73 73" enable-background="new 0 0 73 73" xml:space="preserve">
<g>
	<g>
		<path fill="#010101" d="M50.804,71.876c-1.169,0-2.257-0.365-3.308-0.719c-0.255-0.086-0.507-0.17-0.758-0.249
			c-0.617-0.193-1.299-0.449-2.02-0.72c-2.187-0.822-4.909-1.845-7.815-1.845h-0.805c-2.906,0-5.627,1.023-7.814,1.845
			c-0.722,0.271-1.403,0.527-2.021,0.721c-0.251,0.079-0.504,0.164-0.758,0.249c-1.052,0.353-2.139,0.719-3.308,0.719
			c-1.006,0-1.935-0.273-2.839-0.834c-2.032-1.262-2.963-3.813-3.579-5.501c-0.113-0.31-0.22-0.603-0.32-0.851
			c-3.181-7.893-8.854-12.274-11.276-14.145l-0.22-0.17c-0.129-0.1-0.276-0.206-0.437-0.322c-1.059-0.763-2.659-1.917-3.164-4.127
			c-0.592-2.594,0.464-4.131,1.484-5.617c0.116-0.17,0.233-0.339,0.346-0.509c1.508-2.269,4.039-6.951,4.039-12.815
			c0-2.39-0.66-6.815-0.666-6.86c-0.427-1.92-0.002-3.581,1.34-5.205c1.421-1.721,3.025-2.121,6.082-2.365
			c7.709-0.617,13.626-6.161,16.153-8.529c0.228-0.214,0.427-0.4,0.594-0.551c2.255-2.044,5.208-2.349,6.767-2.349
			c1.559,0,4.512,0.305,6.767,2.349c0.167,0.151,0.366,0.337,0.594,0.551c2.527,2.368,8.444,7.912,16.153,8.529
			c3.057,0.244,4.66,0.644,6.082,2.365c1.341,1.625,1.766,3.285,1.336,5.225c-0.003,0.025-0.663,4.45-0.663,6.84
			c0,5.864,2.53,10.547,4.039,12.815c0.113,0.17,0.229,0.339,0.346,0.509c1.021,1.486,2.076,3.023,1.484,5.617
			c-0.505,2.21-2.105,3.364-3.163,4.127c-0.161,0.116-0.308,0.222-0.437,0.322l-0.219,0.169c-2.422,1.871-8.096,6.253-11.277,14.146
			c-0.1,0.248-0.207,0.541-0.32,0.852c-0.616,1.688-1.547,4.239-3.579,5.501C52.738,71.603,51.81,71.876,50.804,71.876z
			 M36.098,67.768h0.805c3.01,0,5.786,1.043,8.017,1.881c0.714,0.268,1.388,0.522,1.99,0.71c0.255,0.08,0.511,0.166,0.77,0.253
			c1.008,0.339,2.05,0.689,3.125,0.689c0.896,0,1.726-0.245,2.536-0.748c1.863-1.157,2.718-3.499,3.342-5.21
			c0.115-0.315,0.223-0.612,0.327-0.869c3.24-8.038,8.999-12.486,11.459-14.386l0.218-0.169c0.133-0.103,0.286-0.214,0.453-0.334
			c0.989-0.713,2.483-1.79,2.939-3.789c0.536-2.349-0.403-3.716-1.398-5.164c-0.118-0.172-0.236-0.344-0.351-0.516
			c-1.544-2.323-4.135-7.118-4.135-13.134c0-2.433,0.645-6.762,0.673-6.945c0.398-1.797,0.022-3.257-1.215-4.754
			c-1.297-1.571-2.738-1.922-5.684-2.158c-7.91-0.633-13.93-6.273-16.5-8.682c-0.226-0.211-0.422-0.395-0.587-0.545
			c-2.112-1.915-4.905-2.2-6.381-2.2c-1.477,0-4.269,0.286-6.381,2.2c-0.165,0.15-0.362,0.334-0.587,0.545
			c-2.571,2.409-8.59,8.049-16.5,8.682c-2.947,0.236-4.388,0.588-5.684,2.158c-1.237,1.497-1.612,2.957-1.218,4.735
			c0.031,0.203,0.676,4.532,0.676,6.965c0,6.015-2.591,10.811-4.135,13.134c-0.115,0.173-0.233,0.344-0.351,0.516
			c-0.994,1.448-1.934,2.815-1.398,5.164c0.456,1.999,1.951,3.076,2.939,3.789c0.166,0.12,0.319,0.23,0.453,0.334l0.219,0.169
			c2.459,1.9,8.218,6.348,11.458,14.385c0.104,0.257,0.212,0.554,0.327,0.869c0.624,1.71,1.479,4.053,3.342,5.21
			c0.81,0.503,1.64,0.748,2.536,0.748c1.075,0,2.117-0.35,3.125-0.689c0.258-0.087,0.515-0.173,0.769-0.253
			c0.602-0.189,1.276-0.442,1.99-0.71C30.312,68.811,33.088,67.768,36.098,67.768z"/>
	</g>
	<g>
		<path fill="#010101" d="M36.337,65.265c-15.365,0-27.865-12.5-27.865-27.865s12.5-27.865,27.865-27.865s27.865,12.5,27.865,27.865
			S51.702,65.265,36.337,65.265z M36.337,10.109c-15.048,0-27.29,12.242-27.29,27.29c0,15.048,12.242,27.29,27.29,27.29
			s27.29-12.242,27.29-27.29C63.627,22.352,51.385,10.109,36.337,10.109z"/>
	</g>
	<g>
		<path fill="#010101" d="M36.337,57.216c-10.927,0-19.816-8.889-19.816-19.816s8.889-19.816,19.816-19.816
			s19.816,8.89,19.816,19.816S47.263,57.216,36.337,57.216z M36.337,18.158c-10.61,0-19.242,8.632-19.242,19.242
			c0,10.61,8.632,19.241,19.242,19.241S55.578,48.009,55.578,37.4C55.578,26.79,46.947,18.158,36.337,18.158z"/>
	</g>
	<g>
		<path fill="#010101" d="M36.337,60.489c-12.731,0-23.089-10.358-23.089-23.089S23.605,14.31,36.337,14.31
			S59.426,24.668,59.426,37.4S49.068,60.489,36.337,60.489z M36.337,14.885c-12.415,0-22.515,10.1-22.515,22.515
			c0,12.415,10.1,22.515,22.515,22.515c12.415,0,22.515-10.1,22.515-22.515C58.852,24.985,48.752,14.885,36.337,14.885z"/>
	</g>
	<g>
		<rect x="36.05" y="60.201" fill="#010101" width="0.575" height="7.854"/>
	</g>
	<g>
		
			<rect x="5.733" y="32.925" transform="matrix(0.9727 0.2319 -0.2319 0.9727 7.9678 -1.3426)" fill="#010101" width="7.92" height="0.575"/>
	</g>
	<g>
		
			<rect x="62.739" y="28.999" transform="matrix(0.2223 0.975 -0.975 0.2223 81.4181 -35.6017)" fill="#010101" width="0.574" height="8.476"/>
	</g>
	<g>
		
			<rect x="49.308" y="9.706" transform="matrix(0.8763 0.4818 -0.4818 0.8763 12.829 -22.1768)" fill="#010101" width="0.575" height="8.37"/>
	</g>
	<g>
		
			<rect x="15.301" y="50.648" transform="matrix(0.6199 0.7847 -0.7847 0.6199 49.2125 8.7359)" fill="#010101" width="0.575" height="9.037"/>
	</g>
	<g>
		
			<rect x="19.131" y="13.604" transform="matrix(0.4512 0.8924 -0.8924 0.4512 25.151 -13.1174)" fill="#010101" width="8.22" height="0.575"/>
	</g>
	<g>
		
			<rect x="52.601" y="54.88" transform="matrix(0.7981 0.6025 -0.6025 0.7981 44.7958 -23.355)" fill="#010101" width="9.295" height="0.574"/>
	</g>
	<g>
		<path fill="#010101" d="M19.852,19.034c-1.168,0-2.318-0.181-3.418-0.538l0.177-0.546c1.043,0.339,2.134,0.51,3.241,0.51
			c4.876,0,9.071-3.308,10.2-8.045l0.559,0.133C29.42,15.544,24.996,19.034,19.852,19.034z"/>
	</g>
	<g>
		<path fill="#010101" d="M9.15,41.281l-0.305-0.487c3.081-1.933,4.92-5.256,4.92-8.888c0-2.402-0.833-4.75-2.345-6.61l0.446-0.362
			c1.596,1.962,2.474,4.438,2.474,6.972C14.34,35.738,12.4,39.242,9.15,41.281z"/>
	</g>
	<g>
		<path fill="#010101" d="M21.55,60.539l-0.568-0.085c0.078-0.518,0.117-1.047,0.117-1.574c0-2.75-1.057-5.348-2.975-7.317
			c-1.915-1.965-4.478-3.089-7.217-3.164l0.016-0.574c2.889,0.079,5.592,1.264,7.612,3.337c2.024,2.077,3.139,4.818,3.139,7.718
			C21.674,59.435,21.632,59.993,21.55,60.539z"/>
	</g>
	<g>
		<path fill="#010101" d="M52.885,19.034c-5.143,0-9.567-3.489-10.758-8.485l0.559-0.133c1.129,4.736,5.323,8.044,10.199,8.044
			c1.091,0,2.165-0.167,3.194-0.495l0.175,0.547C55.169,18.858,54.035,19.034,52.885,19.034z"/>
	</g>
	<g>
		<path fill="#010101" d="M63.436,41.185c-3.155-2.051-5.039-5.52-5.039-9.279c0-2.511,0.865-4.971,2.435-6.924l0.448,0.36
			c-1.51,1.879-2.308,4.149-2.308,6.564c0,3.563,1.786,6.852,4.777,8.797L63.436,41.185z"/>
	</g>
	<g>
		<path fill="#010101" d="M51.181,60.502c-0.078-0.533-0.118-1.079-0.118-1.622c0-5.999,4.694-10.854,10.686-11.053l0.019,0.574
			c-5.681,0.189-10.131,4.792-10.131,10.479c0,0.516,0.038,1.034,0.112,1.539L51.181,60.502z"/>
	</g>
	<g>
		<path fill="#010101" d="M28.523,63.982l-0.428-0.383c2.097-2.341,5.101-3.684,8.241-3.684c3.141,0,6.145,1.343,8.241,3.684
			l-0.428,0.383c-1.988-2.22-4.835-3.493-7.813-3.493C33.359,60.489,30.511,61.762,28.523,63.982z"/>
	</g>
	<g>
		<g>
			<rect x="40.395" y="36.776" fill="#010101" width="0.575" height="6.129"/>
		</g>
		<g>
			<path fill="#010101" d="M35.432,51.139c-2.116,0-3.777-1-4.579-2.82c-0.862-1.955-0.413-4.243,1.043-5.323
				c1.15-0.853,2.122-0.757,2.734-0.527c0.301,0.113,0.569,0.278,0.799,0.471c0.7-0.336,1.499-0.333,3.429-0.326
				c0.322,0.001,0.677,0.002,1.07,0.002h10.217v0.575H40.97v0.803c0,4-1.45,6.485-4.083,6.999
				C36.383,51.091,35.896,51.139,35.432,51.139z M33.764,42.886c-0.497,0-1.014,0.192-1.526,0.572
				c-1.246,0.924-1.616,2.914-0.86,4.629c0.863,1.957,2.881,2.832,5.398,2.341c1.351-0.263,3.618-1.45,3.618-6.435v-0.803H39.93
				c-0.394,0-0.75-0.001-1.073-0.003c-1.724-0.006-2.455-0.009-3.002,0.192c0.23,0.294,0.383,0.609,0.444,0.887
				c0.107,0.489-0.05,0.944-0.421,1.218c-0.359,0.265-0.839,0.308-1.194,0.108c-0.348-0.197-0.567-0.531-0.599-0.917
				c-0.038-0.45,0.181-0.904,0.6-1.243c0.076-0.062,0.15-0.119,0.222-0.172c-0.143-0.101-0.302-0.189-0.477-0.255
				C34.214,42.926,33.991,42.886,33.764,42.886z M35.337,43.658c-0.093,0.065-0.188,0.138-0.291,0.222
				c-0.269,0.218-0.411,0.491-0.389,0.749c0.017,0.196,0.126,0.361,0.309,0.464c0.157,0.089,0.397,0.059,0.571-0.069
				c0.109-0.081,0.28-0.27,0.201-0.633C35.693,44.19,35.557,43.917,35.337,43.658z"/>
		</g>
		<g>
			<rect x="47.934" y="36.776" fill="#010101" width="0.575" height="12.04"/>
		</g>
		<g>
			<rect x="46.296" y="36.488" fill="#010101" width="3.851" height="0.575"/>
		</g>
		<g>
			<rect x="46.296" y="48.529" fill="#010101" width="3.851" height="0.575"/>
		</g>
		<g>
			<rect x="25.588" y="24.555" fill="#010101" width="0.575" height="12.041"/>
		</g>
		<g>
			<path fill="#010101" d="M25.876,31.432v-0.575h4.339c0.108-0.005,2.94-0.164,2.94-2.831c0-1.011-0.284-1.8-0.844-2.344
				c-0.891-0.867-2.208-0.843-2.223-0.84l-6.137,0v-0.575h6.129c0.054-0.002,1.558-0.038,2.628,0.998
				c0.678,0.657,1.022,1.585,1.022,2.76c0,3.221-3.467,3.404-3.502,3.406L25.876,31.432z"/>
		</g>
		<g>
			<rect x="23.95" y="36.308" fill="#010101" width="3.851" height="0.575"/>
		</g>
		<g>
			<path fill="#010101" d="M38.742,40.082c-0.498,0-1.049-0.068-1.657-0.225c-1.498-0.389-2.862-2.081-3.373-2.922
				c-1.155-1.898-3.257-5.674-3.278-5.712l0.502-0.279c0.021,0.038,2.118,3.804,3.267,5.692c0.546,0.897,1.803,2.347,3.027,2.664
				c1.662,0.431,2.831,0.133,3.621-0.342h-0.467l0.001-2.057c0.053-0.602,0.206-1.438,0.907-1.744
				c0.424-0.185,0.806-0.199,1.135-0.042c0.511,0.244,0.674,0.814,0.68,0.839c0.219,0.801-0.243,1.594-0.328,1.729
				C42.655,37.941,41.542,40.082,38.742,40.082z M40.958,36.94v1.951c0.91-0.59,1.278-1.399,1.305-1.462l0.023-0.043
				c0.004-0.006,0.432-0.673,0.266-1.28c0-0.001-0.103-0.345-0.377-0.473c-0.172-0.081-0.392-0.063-0.654,0.052
				C41.202,35.824,41.023,36.223,40.958,36.94z"/>
		</g>
	</g>
</g>
</svg>
